<?xml version="1.0" encoding="utf-8"?>
<svg version="1.2" baseProfile="tiny-ps" xmlns="http://www.w3.org/2000/svg" width="653px" height="659px" viewBox="0 0 653 659" preserveAspectRatio="xMidYMid meet">
 <g fill="#ffffff">
  <path d="M426.7 656.8 c-37.8 -3.9 -105.3 -33.3 -161.2 -70.2 -41.8 -27.6 -77.9 -57.6 -113.1 -93.8 -72 -74.1 -124.5 -162.1 -143.9 -241.3 -5.1 -20.9 -6.6 -31.1 -7.2 -51.1 -0.6 -20.1 0.4 -30.4 4.2 -41.6 4.5 -13.2 7.2 -16.5 42 -51.4 29.2 -29.3 33.8 -33.5 39.6 -36.3 13.3 -6.5 28.1 -6.5 41.7 0.1 5.4 2.5 10.4 6.8 28.6 24.3 12.2 11.7 32.5 31.8 45.3 44.8 20.3 20.7 23.6 24.6 26.8 31 6.9 13.9 6.9 27.5 0 41.4 -3.2 6.5 -6.8 10.6 -32.6 36.9 l-28.9 29.6 0 4.9 c0 6.1 4.7 15.9 18.6 38.7 35.3 57.8 74.2 99.2 125.9 133.6 27.5 18.3 49.3 30.2 57.4 31.3 4.7 0.6 3 2.1 41.7 -35.8 19.5 -19.2 24 -23.1 29.6 -25.7 12.6 -6.1 28.4 -6.1 40.8 -0.1 5.8 2.8 11.4 8.1 50.8 47.3 45 44.8 49 49.3 52.7 60.1 2.4 6.7 2.5 20.2 0.2 27.7 -3.2 10.5 -9.9 18.7 -40.4 48.9 -28.8 28.5 -34.8 33.5 -46.8 39 -17.6 7.9 -43 10.7 -71.8 7.7z"/>
  <path d="M469.1 319.8 c-1.9 -9.3 -7.7 -26.1 -12.5 -36.3 -24.4 -51.8 -69.6 -88.6 -122.3 -99.6 -5.4 -1.1 -10 -2.2 -10.2 -2.5 -0.2 -0.2 1.1 -11.1 3 -24.2 l3.4 -23.7 5.7 0.2 c13.8 0.4 44.3 10 64.8 20.3 34.7 17.4 65.9 45.6 87.3 78.7 5.6 8.5 14.4 25.9 18.6 36.5 5.5 13.9 14.3 46.9 12.9 48.3 -0.6 0.6 -44.5 8.5 -47.3 8.5 -1.8 0 -2.3 -1 -3.4 -6.2z"/>
  <path d="M600.2 309.2 c-6.9 -43.6 -29.6 -96.5 -57.4 -133.4 -48.5 -64.3 -120.1 -108.2 -199.4 -122.2 l-12 -2.1 3.4 -24.5 c1.9 -13.5 3.7 -24.9 4.1 -25.3 1.1 -1.1 19 1.9 35.4 5.9 53 13 105 38.5 146.1 71.7 13.4 10.8 39.7 36.7 50.5 49.7 31.1 37.4 57.8 87.4 70.6 132.4 3.9 14 11.1 46.5 10.3 47.1 -0.5 0.3 -47.4 8.5 -49 8.5 -0.9 0 -1.7 -2.4 -2.6 -7.8z"/>
 </g>
</svg>