<?xml version="1.0" encoding="utf-8"?>
<svg version="1.2" baseProfile="tiny-ps" xmlns="http://www.w3.org/2000/svg" width="670px" height="620px" viewBox="0 0 670 620" preserveAspectRatio="xMidYMid meet">
 <g fill="#ffffff">
  <path d="M151.5 616.2 c-7.4 -3.6 -11.6 -8 -15.1 -15.6 l-2.6 -5.8 -0.6 -56.9 -0.5 -56.9 -3.1 -0.4 c-1.7 -0.3 -7.5 -1 -12.9 -1.6 -54 -6.3 -99.3 -47.1 -112.9 -101.5 -3 -12 -4.3 -93.2 -3 -190.5 l0.9 -74.5 3.1 -11.9 c3.8 -14.4 12.3 -32.4 21.2 -44.8 17.3 -24.2 45.3 -43.3 74.7 -51 l11.8 -3.1 68 -0.9 c37.4 -0.5 135.7 -0.7 218.5 -0.4 165.6 0.5 158.9 0.3 178.5 6.7 19.4 6.5 36.1 16.6 51.1 31.2 19.1 18.5 29.5 36.1 37.1 63 l2.6 9.2 0.9 61.5 c0.5 33.8 0.6 91.2 0.3 127.5 -0.5 60.2 -0.8 66.9 -2.6 75.7 -5.2 25.9 -18.1 49.2 -37.9 68.1 -18.8 18.1 -40 29.2 -66.2 34.8 -8.9 1.9 -14.8 2 -129.6 2.6 l-120.3 0.6 -29.5 30.1 c-16.3 16.6 -46.1 46.3 -66.3 66.2 -40.3 39.5 -41.6 40.6 -53.1 41.2 -5.6 0.3 -7.4 -0.1 -12.5 -2.6z m36 -333.7 c21.8 -5.7 37.7 -26.4 37.7 -49.1 0 -14.5 -4.7 -26.1 -14.6 -36 -15.6 -15.5 -39.2 -19.7 -58.5 -10.3 -9 4.4 -19.7 15.1 -23.9 24 -13.2 27.7 1.9 61.5 31.7 71 7 2.3 19.7 2.4 27.6 0.4z m159.3 0 c9.1 -2.2 15.8 -5.9 23.3 -13.2 21 -20.2 21.2 -51.8 0.6 -72.4 -22.5 -22.5 -59.5 -18.8 -77.8 7.8 -6.1 8.8 -8.1 16 -8 28.6 0 14.1 4.7 25.5 14.5 35.3 12.9 12.9 30.1 18 47.4 13.9z m158.2 0.4 c9.6 -1.5 18.1 -6 26 -13.8 10.7 -10.5 15 -21.1 15 -36.6 0 -14.6 -3.8 -24.1 -13.8 -34.7 -11.7 -12.3 -26.3 -17.4 -43.7 -15 -11.5 1.5 -20 5.6 -27.9 13.6 -10.7 10.7 -15.6 22 -15.6 36.1 0 23.8 16.2 44.5 39.3 50.1 6.6 1.6 12.5 1.7 20.7 0.3z"/>
 </g>
</svg>