<svg width="440" height="2899" viewBox="0 0 440 2899" fill="none" xmlns="http://www.w3.org/2000/svg">
<g clip-path="url(#clip0_1_60)">
<path d="M242.011 1029.77C241.845 1029.65 241.887 1029.62 242.426 1029.51C244.032 1029.16 246.789 1027.93 250.323 1025.97C251.546 1025.3 252.562 1024.78 252.593 1024.81C252.78 1024.99 251.215 1026.67 250.137 1027.45C248.862 1028.38 246.747 1029.35 245.245 1029.7C244.219 1029.94 242.312 1029.98 242.011 1029.77Z" fill="white"/>
<path d="M204.419 1028.95C202.833 1028.41 201.496 1027.37 202.087 1027.15C202.222 1027.1 204.668 1028.11 205.58 1028.6C205.829 1028.73 206.046 1028.92 206.067 1029.02C206.119 1029.29 205.269 1029.25 204.419 1028.95Z" fill="white"/>
<path d="M209.56 1028.3C207.135 1027.68 204.668 1026.71 204.181 1026.19C203.942 1025.93 204.025 1025.67 204.357 1025.67C204.492 1025.67 205.01 1025.81 205.528 1025.97C209.529 1027.3 212.68 1028.19 213.395 1028.19C213.623 1028.19 213.882 1028.23 213.965 1028.29C214.245 1028.46 213.55 1028.62 212.306 1028.66C211.187 1028.69 211.021 1028.67 209.56 1028.3Z" fill="white"/>
<path d="M222.598 1026.69C222.339 1026.57 222.101 1026.37 222.008 1026.19C221.634 1025.5 221.935 1024.35 222.578 1023.97C222.754 1023.87 223.345 1023.66 223.894 1023.51C225.262 1023.14 227.014 1022.45 228.63 1021.68C229.377 1021.31 229.988 1021 230.009 1020.99C230.03 1020.97 230.092 1020.63 230.144 1020.22C230.444 1017.84 231.418 1015.31 232.735 1013.49C233.367 1012.62 235.502 1010.46 236.393 1009.79C236.839 1009.46 236.963 1009.32 236.849 1009.26C236.767 1009.22 235.699 1009.07 234.476 1008.91C233.263 1008.77 232.009 1008.62 231.709 1008.57C231.408 1008.53 231.149 1008.52 231.128 1008.55C231.108 1008.58 231.201 1009.23 231.336 1009.97C231.605 1011.47 231.667 1013.37 231.47 1014.01C231.108 1015.16 230.071 1015.23 227.915 1014.2C225.998 1013.3 224.205 1012.09 219.976 1008.81C218.919 1008.01 217.996 1007.31 217.914 1007.28C217.841 1007.25 217.654 1007.29 217.499 1007.38C215.841 1008.31 211.539 1010.56 209.581 1011.5C208.015 1012.26 207.124 1012.75 207.155 1012.82C207.808 1014.29 208.005 1014.8 208.223 1015.59C208.565 1016.88 208.679 1018.21 208.554 1019.62C208.461 1020.77 208.472 1020.79 208.7 1020.96C209.27 1021.37 211.581 1022.25 213.737 1022.85C214.172 1022.98 214.628 1023.19 214.804 1023.34C215.519 1023.96 215.333 1025.15 214.452 1025.67C213.954 1025.96 212.711 1025.94 211.56 1025.62C209.788 1025.12 207.217 1024 205.227 1022.85C204.74 1022.58 204.284 1022.35 204.212 1022.35C204.139 1022.35 203.849 1022.46 203.559 1022.59C200.885 1023.82 196.946 1024.03 194.023 1023.11C191.826 1022.41 189.753 1021.01 187.515 1018.74C186.426 1017.62 185.1 1015.91 184.581 1014.93C183.939 1013.74 184.664 1013.18 187.287 1012.84C189.401 1012.57 191.609 1012.68 193.536 1013.15C194.075 1013.28 194.531 1013.37 194.552 1013.35C194.573 1013.33 194.137 1012.78 193.588 1012.13C192.593 1010.94 192.583 1010.93 192.21 1010.98C192.002 1011.01 191.111 1011.03 190.23 1011.03C188.427 1011.03 187.743 1010.9 186.416 1010.31C183.649 1009.09 181.151 1006.36 179.71 1002.98C178.902 1001.08 178.228 998.136 178.176 996.304C178.155 995.489 178.176 995.358 178.373 995.167C178.694 994.855 179.057 994.895 181.275 995.469C183.97 996.163 185.265 996.737 187.328 998.136C187.712 998.397 188.022 998.548 188.043 998.478C188.074 998.377 187.94 997.673 187.732 996.878C187.649 996.556 187.566 996.475 187.069 996.284C185.67 995.73 183.618 994.291 182.332 992.973C180.923 991.513 179.793 989.45 179.223 987.266C179.005 986.461 178.985 986.139 178.985 984.056C178.985 981.872 179.005 981.67 179.285 980.533C179.721 978.711 180.612 976.628 181.265 975.873C181.731 975.33 181.959 975.41 183.016 976.477C184.177 977.665 185.462 979.154 185.991 979.929C186.219 980.261 186.758 981.217 187.183 982.043C187.618 982.878 188.002 983.593 188.054 983.643C188.147 983.733 188.168 983.673 188.375 982.586C188.499 981.942 188.489 981.912 188.126 980.905C187.245 978.5 186.965 976.9 187.048 974.615C187.1 972.904 187.255 972.109 187.805 970.529C188.188 969.442 189.194 967.56 189.95 966.523C191.215 964.792 194.283 961.984 195.112 961.813C195.547 961.722 195.848 962.004 196.231 962.91C197.019 964.742 197.319 966.765 197.247 969.704C197.195 972.028 197.102 972.652 196.542 974.293C195.703 976.759 194.034 979.003 191.888 980.543C190.956 981.217 190.976 981.177 190.696 983.2C190.417 985.163 190.344 985.132 191.847 983.613C193.319 982.123 194.583 981.066 195.91 980.201C196.863 979.577 198.003 978.973 198.242 978.973C198.687 978.973 198.719 978.832 199.04 975.652C199.454 971.465 199.962 965.889 200.957 954.617C201.133 952.634 201.216 952.372 201.714 952.191C202.522 951.879 217.312 952.956 232.517 954.426C240.208 955.16 247.525 956.127 250.966 956.851C253.039 957.284 253.194 957.576 252.686 960.273C252.541 961.008 252.303 962.296 252.158 963.121C252.013 963.957 251.453 966.825 250.914 969.512C249.774 975.229 249.328 977.725 248.893 980.684C248.478 983.532 247.991 986.3 247.183 990.547C246.032 996.576 245.887 997.331 245.949 997.381C245.97 997.411 246.291 997.16 246.644 996.817C247.473 996.042 247.722 995.881 248.136 995.881C248.914 995.881 249.805 997.17 250.551 999.374C250.914 1000.48 251.38 1002.67 251.38 1003.34C251.38 1003.5 251.412 1003.63 251.463 1003.63C251.505 1003.63 252.085 1002.64 252.749 1001.45L253.972 999.273L252.987 998.287C250.997 996.304 249.463 993.416 248.934 990.678C248.82 990.084 248.769 989.259 248.769 988.182C248.769 984.398 249.608 980.986 250.676 980.432C251.059 980.231 251.069 980.231 251.432 980.432C251.95 980.694 254.013 982.797 254.77 983.824C255.433 984.71 256.158 986.028 256.677 987.296C256.853 987.729 257.019 988.122 257.05 988.172C257.174 988.363 257.278 987.82 257.35 986.682L257.423 985.525L257.112 985.183C256.107 984.066 254.77 981.137 254.345 979.124C253.837 976.688 253.982 973.86 254.77 970.921C255.215 969.22 256.967 965.406 257.537 964.893C257.879 964.581 258.408 964.591 259.009 964.933C259.755 965.356 261.092 966.654 261.548 967.399C262.823 969.492 263.631 972.834 263.465 975.34C263.258 978.389 262.077 981.69 260.491 983.623C259.838 984.418 259.869 984.327 259.724 986.27L259.662 987.075L260.055 986.622C262.688 983.603 264.823 981.68 266.45 980.885C267.29 980.473 267.777 980.483 268.223 980.915C268.782 981.459 268.845 981.851 268.845 984.559C268.834 986.803 268.813 987.065 268.554 988.283C268.192 989.913 267.881 990.809 267.228 992.157C265.279 996.123 261.735 999.072 257.744 1000.02C257.236 1000.14 256.749 1000.31 256.646 1000.4C256.49 1000.55 255.298 1002.74 255.35 1002.79C255.36 1002.8 256.19 1002.41 257.185 1001.93C259.682 1000.72 261.714 1000.12 263.88 999.947C264.626 999.887 264.792 999.907 265.186 1000.09C265.808 1000.38 265.994 1000.73 265.994 1001.59C265.994 1003.37 264.823 1006.39 263.258 1008.61C262.429 1009.8 260.677 1011.52 259.62 1012.19C258.003 1013.2 256.438 1013.8 254.645 1014.07C253.412 1014.25 251.183 1014.19 249.567 1013.93C247.877 1013.66 247.805 1013.67 246.862 1014.33C245.784 1015.09 245.307 1015.48 245.369 1015.55C245.4 1015.58 245.898 1015.55 246.457 1015.5C248.385 1015.3 251.194 1015.57 253.298 1016.17C254.407 1016.48 254.749 1016.64 255.195 1017.05C255.847 1017.65 255.557 1018.26 253.744 1020.09C251.805 1022.05 249.308 1023.88 247.183 1024.91C245.535 1025.71 244.571 1026.02 242.944 1026.29C241.835 1026.48 241.555 1026.49 240.29 1026.39C238.041 1026.23 236.58 1025.7 234.289 1024.27C233.75 1023.93 233.253 1023.66 233.18 1023.66C233.108 1023.66 232.123 1024.1 230.983 1024.65C226.982 1026.57 223.987 1027.29 222.598 1026.69ZM242.84 1023.85C245.068 1023.47 248.178 1021.92 250.344 1020.11C251.194 1019.4 252.137 1018.36 252.075 1018.19C251.961 1017.85 249.38 1017.59 246.924 1017.65C243.97 1017.73 241.949 1018.19 239.959 1019.26C238.985 1019.77 238.01 1020.45 238.01 1020.6C238.01 1020.78 238.642 1020.84 240.456 1020.84C242.508 1020.84 243.991 1020.71 245.68 1020.37C246.395 1020.22 247.183 1020.09 247.442 1020.07L247.908 1020.03L247.504 1020.39C247.276 1020.58 246.53 1021.01 245.846 1021.34C243.814 1022.32 241.824 1022.77 239.565 1022.77C238.425 1022.78 236.984 1022.65 236.279 1022.48C235.896 1022.39 236 1022.62 236.466 1022.91C237.005 1023.24 238.072 1023.64 238.891 1023.81C239.648 1023.97 241.99 1024 242.84 1023.85ZM200.18 1021.24C200.294 1021.17 200.242 1021.11 199.921 1020.99C196.812 1019.74 194.303 1018.45 192.977 1017.38L192.666 1017.13L193.599 1017.33C195.723 1017.78 198.563 1018.69 199.869 1019.33C200.584 1019.68 200.563 1019.51 199.807 1018.84C198.729 1017.87 197.786 1017.26 196.293 1016.55C193.858 1015.41 192.21 1014.99 189.712 1014.93C188.769 1014.9 187.867 1014.9 187.701 1014.91L187.401 1014.95L188.054 1015.76C190.448 1018.69 193.277 1020.58 196.148 1021.19C196.905 1021.34 199.942 1021.39 200.18 1021.24ZM233.108 1019.38C235.046 1016.38 236.238 1014.81 236.248 1015.24C236.248 1015.61 235.782 1017.21 235.357 1018.26C235.108 1018.88 234.932 1019.39 234.963 1019.42C235.067 1019.53 236.518 1017.94 236.839 1017.36C237.295 1016.52 237.658 1015.51 237.844 1014.51C238.021 1013.62 238.072 1011.68 237.917 1011.68C237.679 1011.68 236.414 1012.62 235.626 1013.39C234.165 1014.81 233.284 1016.09 232.662 1017.69C232.32 1018.56 231.999 1019.95 232.009 1020.54C232.009 1020.96 232.009 1020.98 232.165 1020.79C232.248 1020.68 232.673 1020.05 233.108 1019.38ZM204.429 1018.6C204.429 1018.53 204.222 1017.86 203.963 1017.12C203.434 1015.6 202.978 1013.99 202.978 1013.66C202.989 1013.46 203.009 1013.46 203.248 1013.75C203.745 1014.31 204.606 1015.66 205.352 1017.05C205.766 1017.8 206.129 1018.43 206.16 1018.43C206.264 1018.43 206.098 1017.38 205.818 1016.32C205.238 1014.08 204.181 1012.12 202.771 1010.66C202.305 1010.16 201.859 1009.77 201.786 1009.77C201.465 1009.77 201.299 1012.36 201.538 1013.66C201.818 1015.2 202.543 1016.67 203.714 1018.05C204.274 1018.73 204.429 1018.84 204.429 1018.6ZM242.198 1014.05C242.747 1013.6 243.192 1013.2 243.192 1013.14C243.192 1013.08 243.047 1012.65 242.871 1012.19C242.705 1011.72 242.488 1011.05 242.405 1010.69C242.322 1010.32 242.229 1009.92 242.208 1009.8C242.156 1009.59 242.094 1009.57 241.451 1009.57H240.746L240.871 1010.3C241.057 1011.3 241.047 1013.3 240.86 1014.27C240.778 1014.7 240.705 1015.09 240.705 1015.13C240.705 1015.24 240.86 1015.12 242.198 1014.05ZM199.247 1012.22C199.247 1011.09 199.309 1010.27 199.454 1009.42C199.879 1006.97 200.221 1006.35 201.123 1006.35C201.641 1006.35 202.502 1006.97 203.942 1008.39C204.564 1009 205.093 1009.47 205.124 1009.44C205.155 1009.41 205.29 1009.09 205.414 1008.72C205.549 1008.36 205.87 1007.67 206.15 1007.18C207.238 1005.25 207.29 1005.14 207.145 1005.05C206.927 1004.92 203.497 1004.46 200.895 1004.2L200.408 1004.16L200.284 1004.58C200.076 1005.27 199.133 1006.95 198.501 1007.77C197.858 1008.6 196.822 1009.58 196.335 1009.82C195.91 1010.04 195.858 1009.95 198.045 1012.57C198.615 1013.24 199.112 1013.8 199.164 1013.8C199.206 1013.8 199.247 1013.08 199.247 1012.22ZM252.697 1011.87C257.153 1011.06 259.993 1009.14 261.683 1005.8C262.18 1004.82 263.092 1002.49 263.092 1002.2C263.092 1001.89 260.429 1002.63 258.615 1003.46C254.956 1005.12 252.593 1006.98 249.318 1010.81C249.028 1011.14 249.308 1011.1 250.468 1010.63C252.997 1009.6 257.34 1007.28 258.884 1006.14C259.33 1005.8 259.713 1005.55 259.745 1005.58C259.838 1005.67 259.216 1006.66 258.625 1007.34C257.941 1008.13 256.76 1009.12 255.619 1009.85C254.79 1010.38 252.717 1011.42 251.868 1011.73C251.36 1011.92 251.142 1012.09 251.422 1012.09C251.505 1012.09 252.085 1011.99 252.697 1011.87ZM228.89 1011.81C228.89 1011.47 228.475 1009.2 228.112 1007.51C227.905 1006.57 227.584 1005 227.387 1004.03C226.962 1001.94 226.62 1000.49 226.516 1000.33C226.464 1000.25 226.236 1000.29 225.728 1000.48C223.707 1001.2 222.028 1001.47 220.442 1001.31C219.126 1001.18 217.893 1000.9 216.908 1000.5C216.079 1000.17 214.773 999.374 214.441 999.021C214.327 998.901 214.162 998.8 214.068 998.8C213.913 998.8 212.825 1000.47 211.55 1002.67C210.731 1004.1 208.057 1009.14 208.057 1009.25C208.057 1009.32 208.109 1009.37 208.181 1009.37C208.347 1009.37 211.021 1007.92 213.623 1006.41C216.577 1004.71 217.509 1004.23 217.872 1004.23C218.235 1004.23 218.629 1004.51 221.251 1006.53C224.827 1009.3 228.516 1011.97 228.765 1011.98C228.827 1011.98 228.89 1011.9 228.89 1011.81ZM245.255 1010.51C245.721 1009.26 246.374 1006.78 246.924 1004.09C247.007 1003.72 247.079 1003.54 247.141 1003.6C247.204 1003.66 247.297 1004.29 247.359 1005C247.463 1006.21 247.38 1007.67 247.162 1008.54C247.131 1008.66 247.152 1008.76 247.214 1008.76C247.463 1008.76 248.354 1006.34 248.644 1004.88C248.831 1003.89 248.831 1001.64 248.644 1000.74C248.447 999.847 248.064 998.881 247.919 998.931C247.68 999.001 246.851 1000.13 246.323 1001.09C244.892 1003.74 244.125 1007.66 244.592 1010.02C244.84 1011.32 244.923 1011.38 245.255 1010.51ZM190.852 1008.77C190.852 1008.72 190.023 1007.86 189.017 1006.83C185.856 1003.64 184.115 1001.59 184.364 1001.35C184.447 1001.27 185.701 1002.01 186.717 1002.74C187.877 1003.56 188.738 1004.29 189.898 1005.38C190.417 1005.89 190.852 1006.24 190.852 1006.17C190.852 1005.96 190.075 1004.52 189.536 1003.76C187.639 1001.04 184.675 998.78 181.752 997.804C180.684 997.451 180.684 997.451 180.954 998.85C181.514 1001.72 182.581 1004.05 184.156 1005.89C185.193 1007.08 187.121 1008.24 188.779 1008.65C189.577 1008.85 190.852 1008.94 190.852 1008.77ZM195.143 1004.7C195.972 1002.26 196.76 1000.32 197.091 999.937C197.205 999.796 197.236 999.837 197.299 1000.27C197.382 1000.86 197.226 1002.7 197.008 1003.72C196.915 1004.13 196.666 1005.06 196.438 1005.77C196.21 1006.49 196.045 1007.09 196.065 1007.12C196.19 1007.23 197.288 1005.31 197.744 1004.19C198.48 1002.38 198.75 1000.25 198.532 998.146C198.387 996.757 198.097 995.64 197.879 995.6C197.63 995.549 195.993 997.321 195.35 998.317C193.578 1001.1 192.966 1004.64 193.827 1007.19C193.972 1007.64 194.003 1007.68 194.127 1007.52C194.2 1007.42 194.656 1006.15 195.143 1004.7ZM241.855 1006.75C241.959 1006.69 242.052 1006.57 242.052 1006.48C242.052 1006.35 241.98 1006.34 241.638 1006.39C241.161 1006.46 240.705 1006.65 240.705 1006.77C240.705 1006.89 241.617 1006.87 241.855 1006.75ZM238.528 1006.16C239.513 1005.66 240.104 1005.46 241.275 1005.25L242.208 1005.09L242.498 1003.89C242.664 1003.24 242.768 1002.68 242.747 1002.65C242.716 1002.62 242.446 1002.8 242.146 1003.03C241.42 1003.58 241.057 1003.75 239.741 1004.12C239.119 1004.3 238.238 1004.63 237.772 1004.85C236.507 1005.46 235.388 1006.16 235.502 1006.27C235.575 1006.34 236.528 1006.47 237.544 1006.54C237.647 1006.54 238.093 1006.37 238.528 1006.16ZM234.663 1005.7C236.404 1004.43 238.56 1003.35 240.062 1003.02L241.037 1002.8L241.7 1001.98C243.182 1000.16 242.923 1001.02 244.27 993.617C247.11 977.977 250.054 961.32 250.292 959.579C250.344 959.176 250.334 959.035 250.22 958.995C249.96 958.904 243.348 957.948 241.223 957.697C238.477 957.364 228.62 956.388 225.417 956.127C224.049 956.016 221.158 955.794 218.991 955.623C216.825 955.452 213.022 955.13 210.544 954.909C208.067 954.687 205.424 954.486 204.678 954.446C203.082 954.375 203.237 954.234 203.134 955.825C203.041 957.294 201.745 971.334 201.372 974.847C200.833 979.939 199.662 992.208 199.662 992.741C199.662 993.214 199.724 993.496 199.921 993.879C200.584 995.137 201.009 997.512 201.009 999.927C201.009 1001.6 201.009 1001.62 201.248 1001.66C201.59 1001.73 208.181 1002.64 208.451 1002.65C208.658 1002.67 208.772 1002.52 209.228 1001.69C209.643 1000.93 209.736 1000.69 209.632 1000.63C209.56 1000.58 208.907 1000.49 208.181 1000.42C206.316 1000.24 204.896 999.978 204.647 999.766C204.502 999.635 204.429 999.404 204.378 998.921C204.243 997.441 203.901 996.837 202.802 996.123C201.662 995.388 201.631 995.348 201.631 994.472C201.631 992.339 204.595 961.058 204.813 960.847C204.865 960.796 205.155 960.716 205.466 960.656C206.772 960.414 207.217 960.001 208.067 958.27C208.472 957.425 208.606 957.234 208.834 957.173C209.446 957.022 216.929 957.505 224.744 958.19C226.309 958.331 229.086 958.552 230.911 958.693C234.217 958.945 238.383 959.367 241.213 959.74C243.12 959.991 243.141 960.011 243.348 961.441C243.431 962.004 243.576 962.618 243.669 962.799C244.146 963.685 245.151 964.53 246.146 964.893C246.488 965.013 246.83 965.154 246.903 965.215C246.976 965.265 247.027 965.547 247.027 965.869C247.027 967.117 242.83 990.306 241.379 997.039C240.695 1000.26 240.508 1000.83 240.104 1000.95C240 1000.98 239.451 1001.05 238.881 1001.11C236.995 1001.29 236.321 1001.7 235.792 1002.99C235.461 1003.79 235.367 1003.92 234.984 1004.08C234.663 1004.2 234.258 1004.17 231.812 1003.83C230.942 1003.7 230.206 1003.63 230.175 1003.66C230.102 1003.73 230.444 1005.58 230.558 1005.76C230.61 1005.85 231.108 1005.94 231.916 1006.01C234.061 1006.2 233.989 1006.21 234.663 1005.7ZM233.968 1000.9C234.3 1000.23 235.315 999.303 236.051 999.021C236.362 998.901 237.005 998.709 237.482 998.609C237.958 998.498 238.394 998.367 238.435 998.327C238.891 997.834 244.426 967.218 244.167 966.563C244.146 966.503 243.959 966.332 243.763 966.201C242.85 965.597 241.41 963.836 240.819 962.588C240.612 962.155 240.508 962.055 240.249 962.014C239.596 961.914 231.802 961.149 227.387 960.766C217.831 959.921 213.022 959.548 211.405 959.548H210.462L210.088 960.032C209.518 960.786 208.15 962.004 207.456 962.377C206.865 962.699 206.813 962.749 206.772 963.121C206.637 964.239 204.274 990.175 204.067 992.922L203.994 993.848L204.336 993.919C205.569 994.17 206.544 995.338 206.813 996.908C206.917 997.461 206.969 997.582 207.155 997.622C207.28 997.653 208.254 997.753 209.332 997.854C211.55 998.055 211.301 998.126 211.881 997.079L212.192 996.525L211.778 995.589C211.083 994.019 210.835 992.932 210.783 991.201C210.741 989.923 210.762 989.531 210.959 988.635C212.016 983.623 216.411 979.758 221.593 979.275C224.122 979.043 227.003 979.698 228.941 980.936C229.802 981.489 231.025 982.697 231.678 983.643C232.776 985.213 233.315 986.743 233.44 988.575C233.688 992.107 232.548 995.096 230.061 997.472L229.076 998.418L229.252 999.565C229.356 1000.2 229.48 1000.74 229.542 1000.78C229.625 1000.83 232.787 1001.32 233.616 1001.41C233.678 1001.41 233.833 1001.19 233.968 1000.9ZM192.396 999.142C193.288 997.391 194.003 996.465 195.671 994.885L196.977 993.637L197.04 992.942C197.071 992.57 197.06 992.258 197.019 992.258C196.977 992.258 196.469 992.701 195.889 993.244C194.397 994.633 192.137 996.042 190.914 996.344C190.624 996.415 190.624 996.425 190.696 996.928C190.821 997.894 191.546 1000.68 191.64 1000.59C191.66 1000.56 192.002 999.907 192.396 999.142ZM223.386 998.085C226.568 997.3 229.242 994.855 230.237 991.805C230.558 990.839 230.641 988.886 230.413 987.81C229.843 985.163 227.926 983.049 225.314 982.224C224.132 981.851 222.111 981.791 220.691 982.073C218.805 982.445 217.219 983.351 215.747 984.861C215.032 985.595 214.794 985.928 214.327 986.864C213.56 988.403 213.415 988.997 213.405 990.648C213.395 992.238 213.592 993.093 214.286 994.382C215.354 996.364 217.572 997.844 220.163 998.297C220.857 998.418 222.453 998.317 223.386 998.085ZM254.739 996.515C254.707 996.354 254.573 995.831 254.438 995.328C253.951 993.496 253.142 989.973 253.091 989.39L253.028 988.786L253.401 989.339C254.137 990.416 255.112 992.49 255.267 993.295C255.309 993.506 255.391 993.697 255.454 993.738C255.609 993.828 255.474 991.564 255.267 990.648C254.946 989.259 254.49 988.061 253.661 986.451C252.842 984.871 251.691 983.25 251.453 983.331C251.152 983.421 250.831 987.075 250.966 988.887C251.111 990.789 251.474 992.017 252.396 993.667C252.977 994.714 253.319 995.227 254.044 996.113C254.645 996.837 254.842 996.948 254.739 996.515ZM258.594 995.459C259.081 994.996 259.827 994.241 260.232 993.768C261.082 992.802 263.268 989.994 263.88 989.098C264.222 988.585 264.284 988.534 264.315 988.725C264.471 989.772 262.605 993.426 260.822 995.559C260.283 996.203 260.232 996.284 260.387 996.284C260.553 996.284 262.108 995.036 262.761 994.382C264.927 992.208 266.098 988.866 266.098 984.861C266.098 984.227 266.056 983.703 266.015 983.703C265.86 983.703 264.523 984.659 263.652 985.394C261.392 987.296 259.403 990.557 257.962 994.674C257.547 995.861 257.444 996.284 257.589 996.284C257.641 996.284 258.097 995.912 258.594 995.459ZM191.899 991.604C192.407 991 193.485 989.51 194.293 988.313C195.112 987.115 195.806 986.129 195.837 986.129C195.941 986.119 195.734 987.306 195.516 987.94C195.236 988.725 194.531 990.084 193.93 991C193.671 991.383 193.485 991.725 193.516 991.755C193.588 991.825 194.873 990.487 195.516 989.661C196.19 988.806 197.205 986.803 197.475 985.817C197.589 985.404 197.734 984.68 197.796 984.207C197.931 983.069 197.931 981.288 197.786 981.288C197.599 981.288 197.257 981.499 196.552 982.023C194.832 983.321 193.039 985.122 192.002 986.602C190.676 988.504 189.764 991.05 189.556 993.466L189.494 994.221L190.24 993.466C190.645 993.053 191.391 992.218 191.899 991.604ZM186.603 993.335C186.603 993.154 186.229 992.127 185.483 990.245C184.426 987.578 183.493 984.559 183.618 984.207C183.7 983.965 185.804 987.347 186.727 989.188C187.204 990.145 187.276 990.255 187.307 989.994C187.473 988.655 186.292 985.082 184.903 982.717C183.949 981.076 182.312 978.973 181.99 978.973C181.638 978.973 181.223 981.147 181.14 983.351C180.964 988.101 182.198 990.728 185.701 993.033C186.374 993.476 186.603 993.556 186.603 993.335ZM258.065 980.825C258.148 980.11 258.273 978.007 258.335 976.155C258.397 974.303 258.48 972.582 258.522 972.33L258.594 971.877L258.926 972.512C259.517 973.619 260.066 976.185 260.097 977.997C260.118 978.731 260.232 979.305 260.325 979.074C260.48 978.661 260.708 977.171 260.771 976.054C260.885 973.86 260.408 971.535 259.465 969.714C259.019 968.858 258.48 968.103 258.314 968.103C258.034 968.103 256.563 971.968 256.21 973.659C255.651 976.316 255.858 978.56 256.884 980.674C257.288 981.509 257.786 982.254 257.879 982.163C257.9 982.133 257.993 981.529 258.065 980.825ZM190.261 978.047C191.049 976.447 192.158 973.347 193.028 970.307C193.619 968.264 193.557 968.445 193.671 968.637C193.827 968.908 193.775 971.223 193.599 972.089C193.505 972.532 193.267 973.397 193.06 974.021C192.863 974.655 192.728 975.189 192.749 975.219C192.821 975.279 193.215 974.675 193.64 973.85C194.117 972.934 194.531 971.626 194.728 970.418C194.936 969.2 194.967 966.785 194.79 966.04C194.583 965.134 194.345 964.48 194.21 964.48C194.023 964.48 192.769 965.819 191.878 966.986C190.261 969.09 189.536 970.871 189.287 973.317C189.1 975.098 189.287 977.705 189.66 978.651C189.764 978.913 189.919 978.752 190.261 978.047Z" fill="white"/>
<path d="M222.194 1005.28C221.386 1004.81 220.567 1004.21 219.904 1003.6C219.489 1003.22 219.354 1003.03 219.354 1002.82C219.354 1002.33 219.779 1002.42 220.608 1003.09C221.375 1003.7 223.085 1005.39 223.085 1005.55C223.085 1005.72 222.816 1005.64 222.194 1005.28Z" fill="white"/>
<path d="M202.678 999.947C202.543 999.666 202.419 999.193 202.388 998.85C202.346 998.287 202.357 998.257 202.512 998.448C202.75 998.74 202.999 999.635 202.958 1000.07L202.927 1000.44L202.678 999.947Z" fill="white"/>
<path d="M246.032 963.081C245.224 962.517 244.612 961.591 244.664 961.028C244.695 960.716 244.737 960.756 245.607 961.883C246.799 963.433 246.893 963.695 246.032 963.081Z" fill="white"/>
<path d="M236.072 996.526C236.155 995.328 236.362 994.03 237.036 990.326C238.155 984.156 238.798 981.389 239.119 981.389C239.306 981.389 238.85 984.519 237.793 990.396C237.202 993.688 236.86 995.258 236.487 996.435C236.114 997.593 236 997.623 236.072 996.526Z" fill="white"/>
<path d="M206.502 983.945C206.502 982.989 207.021 978.46 207.186 977.936C207.217 977.846 207.29 977.795 207.352 977.826C207.425 977.876 207.445 978.52 207.404 979.869C207.352 981.499 207.29 982.103 207.031 983.341C206.855 984.166 206.668 984.891 206.606 984.951C206.533 985.022 206.502 984.7 206.502 983.945Z" fill="white"/>
<path d="M233.139 977.051C227.439 976.467 219.354 975.752 213.301 975.299C212.172 975.209 211.197 975.118 211.135 975.078C211.021 975.008 211.114 973.025 211.27 972.381C211.322 972.159 211.446 971.928 211.539 971.857C211.881 971.616 212.897 971.676 221.79 972.532C230.62 973.377 236.29 974.011 236.829 974.212C237.109 974.313 237.16 974.655 237.067 975.672C236.974 976.678 236.839 977.151 236.632 977.282C236.456 977.393 236.248 977.373 233.139 977.051Z" fill="white"/>
<path d="M233.864 969.854C233.025 969.633 221.676 968.596 216.815 968.304C215.851 968.244 214.97 968.174 214.877 968.143C214.638 968.073 214.628 967.55 214.856 966.352C214.991 965.668 215.094 965.396 215.302 965.174L215.571 964.893L217.178 964.983C220.277 965.174 230.61 966.151 233.087 966.503C235.43 966.825 235.575 966.895 235.481 967.66C235.409 968.294 235.036 969.512 234.859 969.693C234.725 969.824 234.124 969.925 233.864 969.854Z" fill="white"/>
<path d="M220.214 996.435C219.157 996.213 219.074 996.093 219.997 996.082C221.448 996.082 222.723 995.76 224.308 995.006C225.106 994.633 225.376 994.432 225.946 993.838C226.713 993.013 227.584 991.443 227.749 990.567C227.884 989.853 227.718 988.665 227.397 988.041C226.827 986.964 225.583 986.008 224.194 985.595C223.199 985.303 221.344 985.364 220.494 985.716C218.059 986.733 216.463 988.927 216.286 991.503C216.203 992.61 216.162 992.701 215.913 992.157C215.602 991.513 215.53 989.641 215.778 988.745C216.39 986.441 218.411 984.458 220.857 983.743C221.697 983.492 223.521 983.492 224.381 983.743C226.454 984.337 228.247 986.149 228.734 988.152C228.921 988.947 228.931 990.809 228.744 991.574C228.475 992.661 227.884 993.637 226.92 994.583C225.915 995.569 225.024 996.072 223.749 996.384C222.806 996.626 221.199 996.646 220.214 996.435Z" fill="white"/>
<path d="M220.432 994.885C220.474 994.824 220.546 994.774 220.598 994.774C220.66 994.774 221.241 994.512 221.904 994.2C223.469 993.466 224.733 992.499 226.019 991.05L226.516 990.497L226.444 990.949C226.205 992.58 225.096 993.808 223.137 994.603C222.546 994.844 222.215 994.915 221.386 994.955C220.629 994.995 220.38 994.975 220.432 994.885Z" fill="white"/>
<path d="M223.065 1021.33C222.733 1021.15 222.868 1020.96 223.583 1020.58C223.966 1020.38 225.013 1019.72 225.925 1019.14C228.226 1017.65 228.133 1017.7 228.371 1017.77C228.682 1017.87 228.641 1018.41 228.288 1018.89C227.138 1020.43 224.029 1021.89 223.065 1021.33Z" fill="white"/>
<path d="M219.904 1019.13C219.541 1018.99 219.613 1018.84 220.163 1018.62C220.992 1018.28 221.427 1018.03 222.982 1016.97C224.796 1015.73 225.469 1015.35 225.708 1015.44C226.07 1015.57 225.873 1015.9 224.91 1016.79C223.334 1018.24 221.945 1019.04 220.702 1019.16C220.391 1019.2 220.028 1019.18 219.904 1019.13Z" fill="white"/>
</g>
<path d="M130.042 1069.3C127.962 1069.3 126.232 1068.94 124.852 1068.22C123.472 1067.48 122.512 1066.43 121.972 1065.07C121.432 1063.69 121.382 1062.05 121.822 1060.15L124.372 1049.2H130.552L127.852 1060.93C127.692 1061.71 127.692 1062.38 127.852 1062.94C128.032 1063.48 128.352 1063.9 128.812 1064.2C129.292 1064.48 129.882 1064.62 130.582 1064.62C131.502 1064.62 132.212 1064.35 132.712 1063.81C133.232 1063.25 133.612 1062.41 133.852 1061.29L136.672 1049.2H142.792L140.002 1061.23C139.342 1063.97 138.222 1066 136.642 1067.32C135.082 1068.64 132.882 1069.3 130.042 1069.3ZM139.583 1075.3L144.503 1054H149.993L149.003 1059.61L148.703 1059.22C148.923 1058.08 149.313 1057.1 149.873 1056.28C150.453 1055.46 151.143 1054.83 151.943 1054.39C152.763 1053.93 153.633 1053.7 154.553 1053.7C155.473 1053.7 156.283 1053.92 156.983 1054.36C157.683 1054.78 158.223 1055.42 158.603 1056.28C159.003 1057.12 159.203 1058.18 159.203 1059.46C159.203 1060.64 159.043 1061.82 158.723 1063C158.403 1064.16 157.933 1065.22 157.313 1066.18C156.713 1067.12 155.993 1067.88 155.153 1068.46C154.313 1069.02 153.363 1069.3 152.303 1069.3C151.563 1069.3 150.833 1069.16 150.113 1068.88C149.413 1068.6 148.823 1068.13 148.343 1067.47C147.883 1066.81 147.653 1065.92 147.653 1064.8L148.313 1063.57L145.643 1075.3H139.583ZM150.353 1064.95C150.833 1064.95 151.243 1064.79 151.583 1064.47C151.943 1064.15 152.243 1063.75 152.483 1063.27C152.723 1062.79 152.903 1062.28 153.023 1061.74C153.163 1061.2 153.233 1060.71 153.233 1060.27C153.233 1059.81 153.163 1059.42 153.023 1059.1C152.903 1058.76 152.703 1058.5 152.423 1058.32C152.163 1058.14 151.833 1058.05 151.433 1058.05C151.013 1058.05 150.623 1058.2 150.263 1058.5C149.923 1058.8 149.623 1059.2 149.363 1059.7C149.123 1060.18 148.943 1060.7 148.823 1061.26C148.703 1061.8 148.643 1062.33 148.643 1062.85C148.643 1063.49 148.783 1064 149.063 1064.38C149.363 1064.76 149.793 1064.95 150.353 1064.95ZM175.639 1069.3C174.319 1069.3 173.189 1069.07 172.249 1068.61C171.329 1068.15 170.679 1067.47 170.299 1066.57C169.939 1065.67 169.909 1064.54 170.209 1063.18L173.089 1050.79L179.539 1049.11L176.329 1062.97C176.129 1063.69 176.209 1064.25 176.569 1064.65C176.949 1065.03 177.519 1065.22 178.279 1065.22C178.739 1065.22 179.099 1065.2 179.359 1065.16C179.619 1065.1 179.859 1065.02 180.079 1064.92L179.479 1068.67C178.919 1068.89 178.309 1069.05 177.649 1069.15C177.009 1069.25 176.339 1069.3 175.639 1069.3ZM168.709 1058.17L169.669 1054H182.299L181.339 1058.17H168.709ZM190.094 1069.3C188.554 1069.3 187.214 1069.01 186.074 1068.43C184.934 1067.83 184.044 1067.02 183.404 1066C182.784 1064.96 182.474 1063.78 182.474 1062.46C182.474 1060.88 182.814 1059.43 183.494 1058.11C184.174 1056.77 185.164 1055.7 186.464 1054.9C187.784 1054.1 189.404 1053.7 191.324 1053.7C192.884 1053.7 194.234 1054 195.374 1054.6C196.514 1055.18 197.394 1055.98 198.014 1057C198.654 1058.02 198.974 1059.19 198.974 1060.51C198.974 1062.09 198.634 1063.55 197.954 1064.89C197.274 1066.23 196.274 1067.3 194.954 1068.1C193.654 1068.9 192.034 1069.3 190.094 1069.3ZM190.184 1065.16C190.624 1065.16 191.014 1064.99 191.354 1064.65C191.714 1064.31 192.014 1063.87 192.254 1063.33C192.514 1062.79 192.704 1062.22 192.824 1061.62C192.964 1061.02 193.034 1060.46 193.034 1059.94C193.034 1059.46 192.964 1059.07 192.824 1058.77C192.684 1058.47 192.474 1058.24 192.194 1058.08C191.934 1057.92 191.614 1057.84 191.234 1057.84C190.794 1057.84 190.394 1058.01 190.034 1058.35C189.694 1058.69 189.394 1059.13 189.134 1059.67C188.894 1060.21 188.704 1060.78 188.564 1061.38C188.424 1061.98 188.354 1062.54 188.354 1063.06C188.354 1063.52 188.424 1063.91 188.564 1064.23C188.724 1064.53 188.934 1064.76 189.194 1064.92C189.474 1065.08 189.804 1065.16 190.184 1065.16ZM211.192 1069L213.562 1058.83C213.702 1058.25 213.842 1057.66 213.982 1057.06C214.142 1056.44 214.312 1055.82 214.492 1055.2C214.012 1055.58 213.472 1055.93 212.872 1056.25C212.292 1056.55 211.702 1056.82 211.102 1057.06C210.522 1057.28 209.962 1057.43 209.422 1057.51L210.232 1052.38C210.892 1052.26 211.622 1052.03 212.422 1051.69C213.242 1051.35 214.052 1050.96 214.852 1050.52C215.652 1050.06 216.322 1049.62 216.862 1049.2H221.662L217.072 1069H211.192ZM230.165 1069.3C228.465 1069.3 227.035 1068.99 225.875 1068.37C224.735 1067.73 223.875 1066.82 223.295 1065.64C222.715 1064.46 222.425 1063.07 222.425 1061.47C222.425 1060.93 222.455 1060.39 222.515 1059.85C222.575 1059.29 222.655 1058.72 222.755 1058.14C223.015 1056.92 223.365 1055.75 223.805 1054.63C224.265 1053.51 224.855 1052.52 225.575 1051.66C226.295 1050.8 227.185 1050.12 228.245 1049.62C229.305 1049.12 230.575 1048.87 232.055 1048.87C233.755 1048.87 235.175 1049.2 236.315 1049.86C237.455 1050.5 238.315 1051.41 238.895 1052.59C239.475 1053.75 239.765 1055.14 239.765 1056.76C239.765 1057.28 239.735 1057.81 239.675 1058.35C239.615 1058.89 239.535 1059.45 239.435 1060.03C239.175 1061.25 238.815 1062.42 238.355 1063.54C237.915 1064.66 237.335 1065.66 236.615 1066.54C235.895 1067.4 235.005 1068.08 233.945 1068.58C232.885 1069.06 231.625 1069.3 230.165 1069.3ZM230.165 1064.59C230.725 1064.59 231.195 1064.42 231.575 1064.08C231.975 1063.72 232.325 1063.17 232.625 1062.43C232.945 1061.67 233.245 1060.71 233.525 1059.55C233.745 1058.81 233.895 1058.15 233.975 1057.57C234.055 1056.99 234.095 1056.48 234.095 1056.04C234.095 1055.2 233.925 1054.58 233.585 1054.18C233.245 1053.78 232.725 1053.58 232.025 1053.58C231.465 1053.58 230.985 1053.76 230.585 1054.12C230.185 1054.46 229.825 1055 229.505 1055.74C229.205 1056.48 228.905 1057.44 228.605 1058.62C228.405 1059.34 228.255 1060 228.155 1060.6C228.075 1061.18 228.035 1061.69 228.035 1062.13C228.035 1062.69 228.115 1063.16 228.275 1063.54C228.435 1063.9 228.675 1064.17 228.995 1064.35C229.315 1064.51 229.705 1064.59 230.165 1064.59ZM254.629 1058.53L253.549 1063.27H242.179L243.259 1058.53H254.629ZM258.844 1069L260.524 1061.77L256.534 1049.2H262.354L263.764 1054.18L264.514 1057.57L266.614 1054.12L270.004 1049.2H276.484L266.554 1062.19L264.994 1069H258.844ZM279.658 1069.27C278.158 1069.27 276.818 1069 275.638 1068.46C274.478 1067.9 273.568 1067.11 272.908 1066.09C272.268 1065.05 271.948 1063.84 271.948 1062.46C271.948 1060.72 272.298 1059.2 272.998 1057.9C273.718 1056.58 274.728 1055.55 276.028 1054.81C277.328 1054.07 278.858 1053.7 280.618 1053.7C282.178 1053.7 283.498 1053.98 284.578 1054.54C285.658 1055.1 286.478 1055.88 287.038 1056.88C287.618 1057.88 287.908 1059.05 287.908 1060.39C287.908 1060.79 287.888 1061.2 287.848 1061.62C287.808 1062.02 287.728 1062.42 287.608 1062.82H275.998L275.968 1060.18H283.528L281.968 1060.87C282.068 1060.61 282.118 1060.39 282.118 1060.21C282.138 1060.01 282.148 1059.82 282.148 1059.64C282.148 1059.2 282.078 1058.85 281.938 1058.59C281.798 1058.31 281.598 1058.11 281.338 1057.99C281.098 1057.85 280.818 1057.78 280.498 1057.78C279.898 1057.78 279.398 1057.94 278.998 1058.26C278.598 1058.58 278.288 1059 278.068 1059.52C277.848 1060.02 277.698 1060.57 277.618 1061.17C277.538 1061.75 277.498 1062.3 277.498 1062.82C277.498 1063.36 277.598 1063.81 277.798 1064.17C277.998 1064.53 278.278 1064.8 278.638 1064.98C278.998 1065.14 279.408 1065.22 279.868 1065.22C280.468 1065.22 280.948 1065.07 281.308 1064.77C281.668 1064.47 281.938 1064.11 282.118 1063.69L287.158 1065.43C286.838 1066.25 286.308 1066.95 285.568 1067.53C284.828 1068.09 283.948 1068.52 282.928 1068.82C281.928 1069.12 280.838 1069.27 279.658 1069.27ZM294.297 1069.3C293.377 1069.3 292.537 1069.08 291.777 1068.64C291.017 1068.2 290.417 1067.55 289.977 1066.69C289.537 1065.83 289.317 1064.76 289.317 1063.48C289.317 1062.28 289.487 1061.1 289.827 1059.94C290.167 1058.78 290.647 1057.73 291.267 1056.79C291.907 1055.85 292.677 1055.1 293.577 1054.54C294.477 1053.98 295.507 1053.7 296.667 1053.7C297.247 1053.7 297.817 1053.81 298.377 1054.03C298.957 1054.25 299.457 1054.6 299.877 1055.08C300.317 1055.56 300.607 1056.22 300.747 1057.06L301.467 1054H307.527L304.047 1069H298.527L299.037 1066.15C298.537 1067.13 297.877 1067.9 297.057 1068.46C296.237 1069.02 295.317 1069.3 294.297 1069.3ZM297.117 1064.95C297.537 1064.95 297.917 1064.8 298.257 1064.5C298.597 1064.2 298.887 1063.81 299.127 1063.33C299.387 1062.83 299.577 1062.3 299.697 1061.74C299.837 1061.18 299.907 1060.65 299.907 1060.15C299.907 1059.71 299.837 1059.34 299.697 1059.04C299.557 1058.72 299.357 1058.48 299.097 1058.32C298.857 1058.14 298.557 1058.05 298.197 1058.05C297.717 1058.05 297.297 1058.21 296.937 1058.53C296.577 1058.85 296.277 1059.25 296.037 1059.73C295.797 1060.21 295.617 1060.72 295.497 1061.26C295.377 1061.8 295.317 1062.28 295.317 1062.7C295.317 1063.16 295.377 1063.56 295.497 1063.9C295.637 1064.24 295.837 1064.5 296.097 1064.68C296.357 1064.86 296.697 1064.95 297.117 1064.95ZM306.902 1069L310.382 1054H315.782L314.672 1060.15L314.492 1059.55C314.812 1058.39 315.222 1057.37 315.722 1056.49C316.242 1055.61 316.882 1054.93 317.642 1054.45C318.422 1053.95 319.342 1053.7 320.402 1053.7C320.742 1053.7 321.022 1053.73 321.242 1053.79C321.482 1053.83 321.672 1053.89 321.812 1053.97L320.402 1058.98C320.202 1058.88 319.962 1058.8 319.682 1058.74C319.402 1058.68 319.042 1058.65 318.602 1058.65C318.022 1058.65 317.452 1058.78 316.892 1059.04C316.352 1059.3 315.862 1059.71 315.422 1060.27C315.002 1060.81 314.682 1061.55 314.462 1062.49L312.962 1069H306.902ZM153.089 1104L152.069 1084.2H158.099L157.829 1098.96L164.009 1084.2H169.439L169.559 1098.99L175.499 1084.2H182.219L171.989 1104H165.269V1095.54L165.629 1090.41H165.539L163.469 1095.54L159.809 1104H153.089ZM183.98 1104.3C183.06 1104.3 182.22 1104.08 181.46 1103.64C180.7 1103.2 180.1 1102.55 179.66 1101.69C179.22 1100.83 179 1099.76 179 1098.48C179 1097.28 179.17 1096.1 179.51 1094.94C179.85 1093.78 180.33 1092.73 180.95 1091.79C181.59 1090.85 182.36 1090.1 183.26 1089.54C184.16 1088.98 185.19 1088.7 186.35 1088.7C186.93 1088.7 187.5 1088.81 188.06 1089.03C188.64 1089.25 189.14 1089.6 189.56 1090.08C190 1090.56 190.29 1091.22 190.43 1092.06L191.15 1089H197.21L193.73 1104H188.21L188.72 1101.15C188.22 1102.13 187.56 1102.9 186.74 1103.46C185.92 1104.02 185 1104.3 183.98 1104.3ZM186.8 1099.95C187.22 1099.95 187.6 1099.8 187.94 1099.5C188.28 1099.2 188.57 1098.81 188.81 1098.33C189.07 1097.83 189.26 1097.3 189.38 1096.74C189.52 1096.18 189.59 1095.65 189.59 1095.15C189.59 1094.71 189.52 1094.34 189.38 1094.04C189.24 1093.72 189.04 1093.48 188.78 1093.32C188.54 1093.14 188.24 1093.05 187.88 1093.05C187.4 1093.05 186.98 1093.21 186.62 1093.53C186.26 1093.85 185.96 1094.25 185.72 1094.73C185.48 1095.21 185.3 1095.72 185.18 1096.26C185.06 1096.8 185 1097.28 185 1097.7C185 1098.16 185.06 1098.56 185.18 1098.9C185.32 1099.24 185.52 1099.5 185.78 1099.68C186.04 1099.86 186.38 1099.95 186.8 1099.95ZM196.585 1104L200.065 1089H205.465L204.355 1095.15L204.175 1094.55C204.495 1093.39 204.905 1092.37 205.405 1091.49C205.925 1090.61 206.565 1089.93 207.325 1089.45C208.105 1088.95 209.025 1088.7 210.085 1088.7C210.425 1088.7 210.705 1088.73 210.925 1088.79C211.165 1088.83 211.355 1088.89 211.495 1088.97L210.085 1093.98C209.885 1093.88 209.645 1093.8 209.365 1093.74C209.085 1093.68 208.725 1093.65 208.285 1093.65C207.705 1093.65 207.135 1093.78 206.575 1094.04C206.035 1094.3 205.545 1094.71 205.105 1095.27C204.685 1095.81 204.365 1096.55 204.145 1097.49L202.645 1104H196.585ZM209.768 1104L213.248 1089H218.648L217.538 1095.15L217.358 1094.55C217.678 1093.39 218.088 1092.37 218.588 1091.49C219.108 1090.61 219.748 1089.93 220.508 1089.45C221.288 1088.95 222.208 1088.7 223.268 1088.7C223.608 1088.7 223.888 1088.73 224.108 1088.79C224.348 1088.83 224.538 1088.89 224.678 1088.97L223.268 1093.98C223.068 1093.88 222.828 1093.8 222.548 1093.74C222.268 1093.68 221.908 1093.65 221.468 1093.65C220.888 1093.65 220.318 1093.78 219.758 1094.04C219.218 1094.3 218.728 1094.71 218.288 1095.27C217.868 1095.81 217.548 1096.55 217.328 1097.49L215.828 1104H209.768ZM228.687 1104.3C227.767 1104.3 226.927 1104.08 226.167 1103.64C225.407 1103.2 224.807 1102.55 224.367 1101.69C223.927 1100.83 223.707 1099.76 223.707 1098.48C223.707 1097.28 223.877 1096.1 224.217 1094.94C224.557 1093.78 225.037 1092.73 225.657 1091.79C226.297 1090.85 227.067 1090.1 227.967 1089.54C228.867 1088.98 229.897 1088.7 231.057 1088.7C231.637 1088.7 232.207 1088.81 232.767 1089.03C233.347 1089.25 233.847 1089.6 234.267 1090.08C234.707 1090.56 234.997 1091.22 235.137 1092.06L235.857 1089H241.917L238.437 1104H232.917L233.427 1101.15C232.927 1102.13 232.267 1102.9 231.447 1103.46C230.627 1104.02 229.707 1104.3 228.687 1104.3ZM231.507 1099.95C231.927 1099.95 232.307 1099.8 232.647 1099.5C232.987 1099.2 233.277 1098.81 233.517 1098.33C233.777 1097.83 233.967 1097.3 234.087 1096.74C234.227 1096.18 234.297 1095.65 234.297 1095.15C234.297 1094.71 234.227 1094.34 234.087 1094.04C233.947 1093.72 233.747 1093.48 233.487 1093.32C233.247 1093.14 232.947 1093.05 232.587 1093.05C232.107 1093.05 231.687 1093.21 231.327 1093.53C230.967 1093.85 230.667 1094.25 230.427 1094.73C230.187 1095.21 230.007 1095.72 229.887 1096.26C229.767 1096.8 229.707 1097.28 229.707 1097.7C229.707 1098.16 229.767 1098.56 229.887 1098.9C230.027 1099.24 230.227 1099.5 230.487 1099.68C230.747 1099.86 231.087 1099.95 231.507 1099.95ZM241.292 1104L244.772 1089H250.142L249.302 1094.28L249.062 1093.77C249.482 1092.15 250.222 1090.9 251.282 1090.02C252.342 1089.14 253.612 1088.7 255.092 1088.7C256.132 1088.7 257.002 1088.93 257.702 1089.39C258.402 1089.85 258.892 1090.5 259.172 1091.34C259.452 1092.18 259.452 1093.19 259.172 1094.37L256.922 1104H250.862L252.932 1095.24C253.072 1094.62 253.022 1094.13 252.782 1093.77C252.542 1093.41 252.142 1093.23 251.582 1093.23C251.182 1093.23 250.822 1093.33 250.502 1093.53C250.202 1093.73 249.942 1094.02 249.722 1094.4C249.522 1094.78 249.352 1095.26 249.212 1095.84L247.352 1104H241.292ZM267.91 1104.3C266.59 1104.3 265.46 1104.07 264.52 1103.61C263.6 1103.15 262.95 1102.47 262.57 1101.57C262.21 1100.67 262.18 1099.54 262.48 1098.18L265.36 1085.79L271.81 1084.11L268.6 1097.97C268.4 1098.69 268.48 1099.25 268.84 1099.65C269.22 1100.03 269.79 1100.22 270.55 1100.22C271.01 1100.22 271.37 1100.2 271.63 1100.16C271.89 1100.1 272.13 1100.02 272.35 1099.92L271.75 1103.67C271.19 1103.89 270.58 1104.05 269.92 1104.15C269.28 1104.25 268.61 1104.3 267.91 1104.3ZM260.98 1093.17L261.94 1089H274.57L273.61 1093.17H260.98ZM275.147 1110.45C274.247 1110.45 273.407 1110.35 272.627 1110.15C271.847 1109.95 271.237 1109.7 270.797 1109.4L272.357 1105.26C273.057 1105.84 273.947 1106.13 275.027 1106.13C275.547 1106.13 276.007 1106.04 276.407 1105.86C276.827 1105.68 277.157 1105.4 277.397 1105.02L277.727 1104.48L275.087 1089H281.237L281.357 1096.89L281.327 1100.52L282.857 1096.92L286.367 1089H292.727L283.697 1104.66C282.897 1106.06 282.077 1107.18 281.237 1108.02C280.417 1108.88 279.517 1109.5 278.537 1109.88C277.557 1110.26 276.427 1110.45 275.147 1110.45Z" fill="white"/>
<path d="M188.565 1656.82C187.993 1656.45 188.194 1656.82 184.116 1648.85C181.702 1644.15 180.865 1642.55 177.285 1635.88C175.845 1633.2 174.468 1630.62 174.224 1630.14C173.652 1629 173.642 1628.57 174.171 1628C174.87 1627.22 177.867 1625.43 181.786 1623.44C184.402 1622.11 185.122 1621.87 185.705 1622.1C186.182 1622.3 186.976 1623.23 188.183 1625.01C188.851 1626 189.338 1626.61 189.444 1626.61C189.656 1626.61 190.206 1626.27 192.96 1624.45C195.979 1622.46 196.593 1622.06 197.938 1621.21C200.734 1619.43 202.503 1618.39 203.509 1617.92C205.5 1616.98 204.896 1617.05 212.342 1617C219.915 1616.94 228.324 1617.17 232.052 1617.5C234.51 1617.73 236.702 1619 237.623 1620.73C238.079 1621.6 238.206 1622.15 238.195 1623.21C238.195 1624.55 237.761 1625.66 236.628 1627.28C236.31 1627.74 236.077 1628.14 236.098 1628.17C236.162 1628.22 237.327 1627.74 241.786 1625.82C248.193 1623.05 254.951 1620.38 257.143 1619.75C258.711 1619.29 259.367 1619.18 260.352 1619.19C261.771 1619.19 262.714 1619.59 263.847 1620.67C265.786 1622.51 266.262 1625.25 265.044 1627.65C263.699 1630.3 258.7 1634.09 250.534 1638.65C246.213 1641.07 240.949 1643.75 238.714 1644.67C236.501 1645.58 237.189 1645.52 229.394 1645.52C222.563 1645.51 221.895 1645.49 216.684 1645.08C214.291 1644.9 213.359 1644.81 210.139 1644.46C206.707 1644.08 206.718 1644.08 205.712 1644.76C204.79 1645.37 204.017 1645.92 202.196 1647.25L200.988 1648.14L201.052 1648.53C201.253 1649.78 201.253 1649.79 201.02 1650.11C200.3 1651.12 195.438 1654.22 191.626 1656.12C189.793 1657.03 189.126 1657.18 188.565 1656.82ZM190.821 1652.56C191.001 1652.44 191.16 1652.28 191.16 1652.18C191.16 1652.07 190.927 1651.48 190.63 1650.86C189.973 1649.42 189.444 1647.69 189.666 1647.69C189.761 1647.69 190.28 1648.57 191.414 1650.69C191.689 1651.21 191.986 1651.65 192.07 1651.68C192.25 1651.75 193.278 1651.11 193.278 1650.92C193.278 1650.85 192.685 1649.58 191.954 1648.11C190.598 1645.36 190.079 1644.13 189.952 1643.4L189.878 1642.98L190.143 1643.24C190.291 1643.39 191.212 1645.05 192.197 1646.95C193.394 1649.26 194.04 1650.4 194.167 1650.42C194.443 1650.47 194.782 1650.14 194.697 1649.87C194.655 1649.74 193.924 1648.2 193.066 1646.42C191.202 1642.56 190.556 1641.1 190.111 1639.7C189.687 1638.39 189.719 1638.13 190.196 1638.9C190.641 1639.61 193.458 1645.17 194.633 1647.67C195.11 1648.66 195.555 1649.49 195.629 1649.49C195.873 1649.49 196.773 1648.8 196.773 1648.62C196.773 1647.99 193.077 1640.62 190.503 1636.14C187.961 1631.71 185.165 1626.97 184.762 1626.4C184.572 1626.14 184.339 1625.91 184.243 1625.89C183.883 1625.82 177.709 1629.18 177.709 1629.44C177.709 1629.65 178.164 1630.53 180.039 1633.92C183.502 1640.2 185.705 1644.32 188.088 1649.01C188.978 1650.76 189.804 1652.32 189.91 1652.49C190.153 1652.83 190.355 1652.85 190.821 1652.56ZM200.374 1644.09C201.581 1643.24 204.536 1641.32 205.193 1640.97C205.479 1640.8 205.956 1640.64 206.252 1640.59C206.782 1640.51 208.497 1640.6 210.224 1640.8C212.363 1641.06 215.244 1641.24 219.597 1641.39C228.303 1641.67 232.942 1641.78 235.007 1641.74C237.433 1641.68 237.295 1641.73 240.748 1640C249.401 1635.67 258.361 1630.09 260.935 1627.43C261.909 1626.41 262.259 1625.7 262.248 1624.71C262.248 1623.62 261.846 1622.99 260.776 1622.44C260.331 1622.22 259.071 1622.22 258.298 1622.44C257.45 1622.69 252.038 1624.78 247.399 1626.64C242.834 1628.49 242.686 1628.55 239.72 1629.84C236.268 1631.35 236.48 1631.3 233.472 1631.09C232.063 1631 228.451 1630.91 223.654 1630.87C216.441 1630.8 216.049 1630.79 215.848 1630.59C215.477 1630.26 215.541 1629.61 216.028 1628.95C216.43 1628.4 216.949 1628.07 217.638 1627.95C218.326 1627.83 220.529 1627.67 223.939 1627.51C229.087 1627.27 230.294 1627.11 231.766 1626.49C233.599 1625.7 234.732 1624.53 234.88 1623.27C235.039 1621.85 234.234 1621.07 232.254 1620.72C230.326 1620.4 223.209 1620.15 215.255 1620.15C209.376 1620.15 206.559 1620.27 205.67 1620.52C204.907 1620.76 203.075 1621.71 201.433 1622.76C197.62 1625.16 191.265 1629.58 191.265 1629.81C191.265 1629.87 191.668 1630.62 192.155 1631.47C193.765 1634.28 195.904 1638.27 197.546 1641.51C198.584 1643.59 199.209 1644.72 199.315 1644.72C199.4 1644.71 199.876 1644.44 200.374 1644.09Z" fill="white"/>
<path d="M215.647 1639.75C214.799 1639.63 213.285 1639.25 213.158 1639.12C212.956 1638.92 213.931 1638.87 216.896 1638.93C219.798 1638.99 222.234 1639.22 222.446 1639.43C222.51 1639.49 222.425 1639.58 222.234 1639.66C221.864 1639.82 216.706 1639.88 215.647 1639.75Z" fill="white"/>
<path d="M249.253 1633.19C249.359 1633.06 250.1 1632.52 250.894 1631.98C252.758 1630.72 255.872 1628.57 258.245 1626.89C259.283 1626.16 260.193 1625.55 260.268 1625.55C260.532 1625.55 260.299 1625.99 259.696 1626.64C258.584 1627.85 256.264 1629.56 253.648 1631.11C252.366 1631.87 249.75 1633.21 249.306 1633.34L249.041 1633.42L249.253 1633.19Z" fill="white"/>
<path d="M196.244 1631.07C196.244 1630.36 203.446 1625.19 203.848 1625.61C204.007 1625.76 201.984 1627.4 198.838 1629.65C196.519 1631.31 196.244 1631.46 196.244 1631.07Z" fill="white"/>
<path d="M206.655 1624.07C206.104 1623.95 205.754 1623.77 205.828 1623.65C205.86 1623.59 206.21 1623.45 206.602 1623.32C207.279 1623.1 207.512 1623.09 212.289 1623.04C216.864 1623 220.868 1623.11 221.154 1623.29C221.376 1623.43 220.677 1623.66 219.565 1623.82C218.94 1623.9 217.383 1624.02 216.102 1624.07C213.263 1624.19 207.269 1624.19 206.655 1624.07Z" fill="white"/>
<path d="M199.124 1656.08C199.135 1656.02 199.749 1655.49 200.48 1654.9C201.211 1654.31 202.397 1653.33 203.128 1652.74C204.589 1651.54 205.892 1650.56 206.019 1650.55C206.252 1650.55 206.019 1651.05 205.479 1651.74C204.346 1653.15 202.746 1654.51 201.115 1655.44C200.437 1655.83 199.039 1656.27 199.124 1656.08Z" fill="white"/>
<path d="M222.192 1649.94C219.301 1649.85 215.382 1649.39 215.096 1649.11C214.958 1648.97 214.958 1648.94 215.096 1648.85C215.297 1648.73 227.593 1648.72 229.786 1648.84C230.665 1648.9 231.48 1648.99 231.576 1649.04C232.063 1649.32 229.436 1649.75 226.323 1649.91C225.189 1649.97 223.992 1650.01 223.675 1650C223.357 1649.99 222.69 1649.97 222.192 1649.94Z" fill="white"/>
<path d="M243.745 1646.31C243.862 1646.21 245.366 1645.33 247.081 1644.37C248.797 1643.41 250.778 1642.31 251.477 1641.92C253.902 1640.55 254.919 1640.09 254.919 1640.36C254.919 1640.58 253.383 1641.9 252.112 1642.76C249.772 1644.36 245.006 1646.52 243.83 1646.52C243.544 1646.52 243.544 1646.52 243.745 1646.31Z" fill="white"/>
<path d="M175.559 1640.93C174.044 1639.33 172.18 1635.59 172.021 1633.8C171.979 1633.41 172 1633.18 172.085 1633.14C172.169 1633.08 172.89 1634.43 174.267 1637.24C175.4 1639.54 176.332 1641.45 176.332 1641.48C176.332 1641.66 176.099 1641.48 175.559 1640.93Z" fill="white"/>
<path d="M246.107 1619.55C245.705 1619.51 245.429 1619.28 245.535 1619.1C245.578 1619.05 245.969 1618.92 246.425 1618.83C247.971 1618.49 250.058 1617.94 251.72 1617.41C254.104 1616.65 255.004 1616.41 255.3 1616.49C255.84 1616.62 255.544 1616.88 253.786 1617.75C251.593 1618.85 249.465 1619.44 247.293 1619.55C246.859 1619.57 246.319 1619.57 246.107 1619.55Z" fill="white"/>
<path d="M196.561 1618.22C196.011 1617.84 195.619 1616.98 194.178 1613C191.043 1604.28 189.645 1600.46 188.618 1597.81C188.025 1596.28 187.951 1595.64 188.279 1595.1C188.575 1594.62 190.016 1593.12 191.319 1591.95C193.447 1590.03 195.396 1588.93 198.478 1587.91C202.598 1586.55 207.047 1585.84 215.784 1585.15C218.305 1584.95 220.762 1584.72 222.722 1584.5C231.015 1583.6 237.105 1581.71 242.125 1578.49C244.286 1577.1 245.038 1576.45 248.797 1572.68C250.852 1570.63 252.483 1569.08 252.631 1569.04C253.066 1568.93 253.256 1569.03 253.659 1569.56C254.4 1570.54 254.834 1571.78 259.05 1585.04C262.598 1596.18 263.371 1598.6 263.985 1600.43C264.356 1601.55 264.663 1602.63 264.663 1602.85C264.663 1604.15 261.2 1608.45 258.308 1610.75C256.794 1611.94 255.724 1612.63 253.881 1613.56C252.007 1614.52 250.333 1615.21 248.554 1615.74C246.859 1616.25 246.34 1616.34 244.116 1616.43C241.775 1616.55 240.091 1616.44 238.503 1616.08C236.893 1615.72 234.997 1614.93 235.23 1614.71C235.251 1614.69 236.395 1614.59 237.761 1614.5C243.512 1614.08 246.361 1613.53 249.571 1612.19C252.42 1611 254.729 1609.59 256.656 1607.89C258.128 1606.57 260.014 1604.38 260.702 1603.17C261.136 1602.41 261.157 1602.5 259.526 1597.43C258.976 1595.75 258.202 1593.29 257.789 1591.98C253.436 1577.97 252.187 1574.08 252.038 1574.08C251.985 1574.08 251.127 1574.87 250.121 1575.86C246.637 1579.24 244.349 1580.89 240.377 1582.88C235.156 1585.51 230.305 1586.68 221.08 1587.58C218.93 1587.78 216.166 1588.06 214.937 1588.18C203.689 1589.27 197.885 1590.75 194.602 1593.39C193.183 1594.52 191.689 1596.05 191.689 1596.34C191.689 1596.65 192.812 1599.84 195.428 1606.97C197.218 1611.84 198.69 1616.17 198.838 1616.98C198.923 1617.46 198.616 1617.96 198.055 1618.25C197.504 1618.52 196.996 1618.51 196.561 1618.22Z" fill="white"/>
<path d="M223.855 1615.9C222.891 1615.78 221.684 1615.36 220.752 1614.86C220.032 1614.45 219.566 1614.06 219.671 1613.96C219.703 1613.92 220.466 1614.08 221.377 1614.32C222.902 1614.71 223.813 1614.89 226.418 1615.33C226.958 1615.43 227.53 1615.55 227.689 1615.62L227.964 1615.74L227.594 1615.82C226.99 1615.96 224.639 1616.02 223.855 1615.9Z" fill="white"/>
<path d="M204.398 1615.09C204.123 1615 203.869 1614.73 203.318 1613.92C202.545 1612.81 201.666 1612.22 200.575 1612.06C199.781 1611.94 200.056 1612.53 197.556 1605.64C195.459 1599.88 195.576 1600.24 195.639 1599.81C195.671 1599.59 195.883 1599.14 196.105 1598.8C196.847 1597.71 196.91 1597.53 196.985 1596.22C197.059 1595.03 197.069 1595 197.387 1594.73C198.086 1594.16 200.66 1593.19 202.947 1592.62C205.352 1592.03 207.618 1591.74 210.594 1591.61L212.077 1591.54L212.268 1591.87C212.628 1592.48 212.469 1593.38 211.95 1593.66C211.844 1593.72 211.262 1593.84 210.647 1593.94C207.184 1594.49 206.21 1594.67 204.822 1595.01C202.312 1595.6 200.427 1596.28 200.331 1596.63C200.3 1596.72 200.183 1597.22 200.056 1597.74C199.94 1598.26 199.654 1599.11 199.421 1599.63C199.188 1600.13 198.997 1600.67 198.997 1600.81C198.997 1601.03 200.247 1604.64 201.465 1607.91L201.941 1609.17L202.534 1609.35C203.541 1609.67 204.515 1610.43 205.436 1611.61L205.669 1611.92L206.962 1611.65C210.986 1610.79 214.312 1610.7 215.106 1611.42C215.329 1611.63 215.382 1612.29 215.191 1612.64C215 1613 214.513 1613.12 212.236 1613.37C209.842 1613.63 207.618 1614.1 206.061 1614.69C205.203 1615.01 204.61 1615.15 204.398 1615.09Z" fill="white"/>
<path d="M190.63 1613.9C189.984 1613 187.897 1608.23 187.082 1605.8C186.552 1604.22 186.415 1603.49 186.605 1603.26C186.828 1602.99 187.103 1603.26 187.548 1604.19C188.724 1606.67 191.054 1613.19 191.054 1614.03C191.054 1614.32 190.884 1614.26 190.63 1613.9Z" fill="white"/>
<path d="M224.829 1613.16C224.014 1613.03 222.605 1612.5 221.758 1612C220.741 1611.39 219.142 1609.93 218.347 1608.86C217.203 1607.35 216.335 1605.54 215.763 1603.47C215.541 1602.64 215.498 1602.23 215.445 1600.3C215.382 1597.84 215.456 1597.15 215.964 1595.69C217.034 1592.62 219.311 1590.27 222.022 1589.45C222.933 1589.17 224.787 1589.14 225.867 1589.39C226.746 1589.6 228.07 1590.2 228.97 1590.81C230.008 1591.51 231.724 1593.28 232.412 1594.34C234.149 1597.03 234.901 1599.6 234.901 1602.9C234.901 1605.21 234.562 1606.67 233.62 1608.5C232.508 1610.65 230.337 1612.52 228.377 1612.99C227.593 1613.18 225.602 1613.28 224.829 1613.16ZM227.996 1609.35C230.135 1608.33 231.427 1605.49 231.269 1602.15C231.173 1600.39 230.909 1599.24 230.188 1597.65C229.373 1595.83 227.636 1593.92 226.1 1593.15C225.263 1592.73 225.21 1592.72 224.162 1592.72C223.219 1592.72 223.007 1592.75 222.552 1592.99C220.932 1593.79 219.735 1595.5 219.258 1597.63C219.025 1598.66 219.025 1600.77 219.269 1601.97C219.936 1605.39 222.075 1608.36 224.628 1609.42C225.104 1609.61 225.412 1609.67 226.27 1609.67C227.233 1609.67 227.392 1609.63 227.996 1609.35Z" fill="white"/>
<path d="M229.045 1602.97C229.023 1602.9 228.886 1602.41 228.759 1601.88C228.303 1600.06 227.594 1598.57 226.386 1596.88C225.539 1595.7 225.422 1595.48 225.56 1595.35C225.634 1595.27 225.814 1595.32 226.132 1595.51C227.371 1596.24 228.79 1598.26 229.246 1599.95C229.447 1600.73 229.553 1602.44 229.405 1602.81C229.288 1603.12 229.129 1603.18 229.045 1602.97Z" fill="white"/>
<path d="M240.642 1610.95C240.123 1610.57 239.943 1610.2 240.049 1609.73C240.197 1609.03 240.504 1608.85 242.601 1608.28C245.811 1607.4 249.645 1605.95 250.079 1605.45C250.164 1605.36 250.333 1604.94 250.449 1604.53C250.735 1603.59 251.307 1602.4 252.208 1600.94C252.589 1600.3 252.907 1599.66 252.907 1599.51C252.907 1599.17 252.578 1597.99 251.223 1593.41C250.63 1591.43 249.952 1589.11 249.719 1588.26L249.284 1586.7L248.151 1586.64C247.251 1586.58 246.891 1586.5 246.351 1586.26L245.683 1585.96L244.444 1586.55C241.945 1587.72 238.005 1589.16 236.543 1589.43C235.696 1589.59 235.272 1589.41 235.187 1588.85C235.103 1588.32 235.325 1587.83 235.759 1587.56C235.961 1587.44 237.221 1586.91 238.566 1586.37C242.612 1584.77 244.307 1583.83 247.77 1581.26C250.058 1579.58 250.248 1579.5 250.566 1580.25C250.873 1580.99 251.922 1584.45 253.648 1590.44C253.945 1591.49 254.485 1593.3 254.834 1594.47C255.65 1597.16 256.116 1598.83 256.328 1599.73C256.518 1600.58 256.487 1600.66 255.523 1601.93C255.184 1602.37 254.675 1603.21 254.389 1603.79C253.934 1604.72 253.765 1605.23 253.489 1606.53C253.394 1606.98 252.981 1607.34 251.848 1607.94C248.395 1609.8 244.582 1611.07 242.051 1611.22C241.108 1611.28 241.087 1611.28 240.642 1610.95Z" fill="white"/>
<path d="M242.951 1604.85C242.845 1604.72 242.845 1604.66 242.961 1604.52C243.141 1604.31 247.293 1602.22 247.378 1602.31C247.473 1602.4 246.054 1603.71 245.429 1604.12C244.391 1604.78 243.194 1605.13 242.951 1604.85Z" fill="white"/>
<path d="M268.402 1604.32C268.147 1603.83 266.347 1597.52 266.209 1596.65L266.135 1596.17L266.368 1596.37C266.887 1596.85 268.169 1600.07 268.455 1601.63C268.635 1602.58 268.719 1603.98 268.603 1604.26C268.508 1604.51 268.508 1604.51 268.402 1604.32Z" fill="white"/>
<path d="M202.143 1600.91C201.963 1600.74 202.1 1600.04 202.439 1599.32C203.106 1597.93 203.519 1597.65 205.468 1597.12C206.686 1596.8 207.597 1596.68 207.851 1596.83C208.031 1596.93 207.968 1596.98 207.417 1597.22C204.939 1598.31 204.123 1598.87 203.329 1600.04C202.799 1600.82 202.365 1601.14 202.143 1600.91Z" fill="white"/>
<path d="M243.057 1592.86C243.057 1592.75 243.353 1592.46 243.713 1592.19C245.535 1590.85 246.192 1590.39 246.319 1590.39C246.944 1590.38 245.186 1592.18 243.936 1592.82C243.385 1593.09 243.057 1593.1 243.057 1592.86Z" fill="white"/>
<path d="M185.652 1589.02C183.227 1587.99 181.193 1586.86 180.759 1586.32C180.367 1585.85 180.674 1585.41 181.384 1585.41C181.733 1585.41 181.998 1585.53 182.75 1586.03C183.852 1586.76 185.61 1588.16 186.288 1588.84C186.849 1589.43 186.701 1589.47 185.652 1589.02Z" fill="white"/>
<path d="M265.637 1586.61C265.298 1586.12 264.907 1585 264.462 1583.28C263.604 1579.98 263.191 1577.42 263.477 1577.13C263.636 1576.97 263.974 1577.19 264.165 1577.6C264.557 1578.42 265.881 1584.46 266.008 1585.95C266.082 1586.86 265.966 1587.06 265.637 1586.61Z" fill="white"/>
<path d="M189.306 1583.77C188.247 1583.06 186.394 1580.96 186.394 1580.48C186.394 1580.14 186.764 1579.98 187.135 1580.17C187.654 1580.45 188.713 1581.77 189.423 1583.05C189.92 1583.93 189.878 1584.15 189.306 1583.77Z" fill="white"/>
<path d="M236.914 1577.18C236.914 1577.13 237.549 1576.58 238.333 1575.95C239.106 1575.34 240.589 1574.03 241.627 1573.05C243.957 1570.85 244.402 1570.48 244.667 1570.48C245.249 1570.48 244.413 1572.05 243.089 1573.45C242.03 1574.57 240.473 1575.69 238.873 1576.47C237.475 1577.15 236.914 1577.36 236.914 1577.18Z" fill="white"/>
<path d="M80.3548 1706.3C78.2748 1706.3 76.5448 1705.94 75.1648 1705.22C73.7848 1704.48 72.8248 1703.43 72.2848 1702.07C71.7448 1700.69 71.6948 1699.05 72.1348 1697.15L74.6848 1686.2H80.8648L78.1648 1697.93C78.0048 1698.71 78.0048 1699.38 78.1648 1699.94C78.3448 1700.48 78.6648 1700.9 79.1248 1701.2C79.6048 1701.48 80.1948 1701.62 80.8948 1701.62C81.8148 1701.62 82.5248 1701.35 83.0248 1700.81C83.5448 1700.25 83.9248 1699.41 84.1648 1698.29L86.9848 1686.2H93.1048L90.3148 1698.23C89.6548 1700.97 88.5348 1703 86.9548 1704.32C85.3948 1705.64 83.1948 1706.3 80.3548 1706.3ZM89.8957 1712.3L94.8157 1691H100.306L99.3157 1696.61L99.0157 1696.22C99.2357 1695.08 99.6257 1694.1 100.186 1693.28C100.766 1692.46 101.456 1691.83 102.256 1691.39C103.076 1690.93 103.946 1690.7 104.866 1690.7C105.786 1690.7 106.596 1690.92 107.296 1691.36C107.996 1691.78 108.536 1692.42 108.916 1693.28C109.316 1694.12 109.516 1695.18 109.516 1696.46C109.516 1697.64 109.356 1698.82 109.036 1700C108.716 1701.16 108.246 1702.22 107.626 1703.18C107.026 1704.12 106.306 1704.88 105.466 1705.46C104.626 1706.02 103.676 1706.3 102.616 1706.3C101.876 1706.3 101.146 1706.16 100.426 1705.88C99.7257 1705.6 99.1357 1705.13 98.6557 1704.47C98.1957 1703.81 97.9657 1702.92 97.9657 1701.8L98.6257 1700.57L95.9557 1712.3H89.8957ZM100.666 1701.95C101.146 1701.95 101.556 1701.79 101.896 1701.47C102.256 1701.15 102.556 1700.75 102.796 1700.27C103.036 1699.79 103.216 1699.28 103.336 1698.74C103.476 1698.2 103.546 1697.71 103.546 1697.27C103.546 1696.81 103.476 1696.42 103.336 1696.1C103.216 1695.76 103.016 1695.5 102.736 1695.32C102.476 1695.14 102.146 1695.05 101.746 1695.05C101.326 1695.05 100.936 1695.2 100.576 1695.5C100.236 1695.8 99.9357 1696.2 99.6757 1696.7C99.4357 1697.18 99.2557 1697.7 99.1357 1698.26C99.0157 1698.8 98.9557 1699.33 98.9557 1699.85C98.9557 1700.49 99.0957 1701 99.3757 1701.38C99.6757 1701.76 100.106 1701.95 100.666 1701.95ZM116.187 1712.45C115.267 1712.45 114.377 1712.34 113.517 1712.12C112.677 1711.9 111.917 1711.55 111.237 1711.07C110.557 1710.61 110.037 1710.02 109.677 1709.3C109.297 1708.58 109.117 1707.73 109.137 1706.75L115.197 1706.3C115.177 1707.04 115.277 1707.63 115.497 1708.07C115.717 1708.51 116.197 1708.73 116.937 1708.73C117.337 1708.73 117.687 1708.62 117.987 1708.4C118.307 1708.2 118.587 1707.88 118.827 1707.44C119.067 1707.02 119.267 1706.44 119.427 1705.7L120.657 1700.39L120.867 1700.54C120.567 1702.18 119.977 1703.44 119.097 1704.32C118.217 1705.18 117.087 1705.61 115.707 1705.61C114.767 1705.61 113.917 1705.39 113.157 1704.95C112.417 1704.51 111.827 1703.87 111.387 1703.03C110.947 1702.17 110.727 1701.12 110.727 1699.88C110.727 1698.72 110.887 1697.59 111.207 1696.49C111.547 1695.39 112.027 1694.41 112.647 1693.55C113.287 1692.67 114.047 1691.98 114.927 1691.48C115.827 1690.96 116.837 1690.7 117.957 1690.7C118.657 1690.7 119.327 1690.86 119.967 1691.18C120.607 1691.5 121.127 1692.02 121.527 1692.74C121.947 1693.44 122.137 1694.36 122.097 1695.5L121.467 1696.43L122.697 1691H128.757L125.517 1705.01C125.097 1706.89 124.477 1708.37 123.657 1709.45C122.837 1710.53 121.807 1711.3 120.567 1711.76C119.347 1712.22 117.887 1712.45 116.187 1712.45ZM118.527 1701.32C119.087 1701.32 119.557 1701.11 119.937 1700.69C120.337 1700.25 120.637 1699.71 120.837 1699.07C121.057 1698.43 121.167 1697.78 121.167 1697.12C121.167 1696.7 121.097 1696.34 120.957 1696.04C120.817 1695.72 120.617 1695.48 120.357 1695.32C120.097 1695.14 119.787 1695.05 119.427 1695.05C118.807 1695.05 118.297 1695.28 117.897 1695.74C117.497 1696.18 117.197 1696.72 116.997 1697.36C116.797 1697.98 116.697 1698.56 116.697 1699.1C116.697 1699.76 116.837 1700.3 117.117 1700.72C117.417 1701.12 117.887 1701.32 118.527 1701.32ZM128.133 1706L131.613 1691H137.013L135.903 1697.15L135.723 1696.55C136.043 1695.39 136.453 1694.37 136.953 1693.49C137.473 1692.61 138.113 1691.93 138.873 1691.45C139.653 1690.95 140.573 1690.7 141.633 1690.7C141.973 1690.7 142.253 1690.73 142.473 1690.79C142.713 1690.83 142.903 1690.89 143.043 1690.97L141.633 1695.98C141.433 1695.88 141.193 1695.8 140.913 1695.74C140.633 1695.68 140.273 1695.65 139.833 1695.65C139.253 1695.65 138.683 1695.78 138.123 1696.04C137.583 1696.3 137.093 1696.71 136.653 1697.27C136.233 1697.81 135.913 1698.55 135.693 1699.49L134.193 1706H128.133ZM147.051 1706.3C146.131 1706.3 145.291 1706.08 144.531 1705.64C143.771 1705.2 143.171 1704.55 142.731 1703.69C142.291 1702.83 142.071 1701.76 142.071 1700.48C142.071 1699.28 142.241 1698.1 142.581 1696.94C142.921 1695.78 143.401 1694.73 144.021 1693.79C144.661 1692.85 145.431 1692.1 146.331 1691.54C147.231 1690.98 148.261 1690.7 149.421 1690.7C150.001 1690.7 150.571 1690.81 151.131 1691.03C151.711 1691.25 152.211 1691.6 152.631 1692.08C153.071 1692.56 153.361 1693.22 153.501 1694.06L154.221 1691H160.281L156.801 1706H151.281L151.791 1703.15C151.291 1704.13 150.631 1704.9 149.811 1705.46C148.991 1706.02 148.071 1706.3 147.051 1706.3ZM149.871 1701.95C150.291 1701.95 150.671 1701.8 151.011 1701.5C151.351 1701.2 151.641 1700.81 151.881 1700.33C152.141 1699.83 152.331 1699.3 152.451 1698.74C152.591 1698.18 152.661 1697.65 152.661 1697.15C152.661 1696.71 152.591 1696.34 152.451 1696.04C152.311 1695.72 152.111 1695.48 151.851 1695.32C151.611 1695.14 151.311 1695.05 150.951 1695.05C150.471 1695.05 150.051 1695.21 149.691 1695.53C149.331 1695.85 149.031 1696.25 148.791 1696.73C148.551 1697.21 148.371 1697.72 148.251 1698.26C148.131 1698.8 148.071 1699.28 148.071 1699.7C148.071 1700.16 148.131 1700.56 148.251 1700.9C148.391 1701.24 148.591 1701.5 148.851 1701.68C149.111 1701.86 149.451 1701.95 149.871 1701.95ZM165.596 1706.3C164.676 1706.3 163.836 1706.08 163.076 1705.64C162.316 1705.2 161.716 1704.55 161.276 1703.69C160.836 1702.83 160.616 1701.76 160.616 1700.48C160.616 1699.28 160.786 1698.1 161.126 1696.94C161.466 1695.78 161.946 1694.73 162.566 1693.79C163.206 1692.85 163.976 1692.1 164.876 1691.54C165.776 1690.98 166.806 1690.7 167.966 1690.7C168.546 1690.7 169.116 1690.81 169.676 1691.03C170.256 1691.25 170.756 1691.6 171.176 1692.08C171.616 1692.56 171.906 1693.22 172.046 1694.06L174.176 1684.82H180.236L175.346 1706H169.826L170.336 1703.15C169.836 1704.13 169.176 1704.9 168.356 1705.46C167.536 1706.02 166.616 1706.3 165.596 1706.3ZM168.416 1701.95C168.836 1701.95 169.216 1701.8 169.556 1701.5C169.916 1701.2 170.216 1700.81 170.456 1700.33C170.696 1699.83 170.876 1699.3 170.996 1698.74C171.136 1698.18 171.206 1697.65 171.206 1697.15C171.206 1696.71 171.136 1696.34 170.996 1696.04C170.856 1695.72 170.656 1695.48 170.396 1695.32C170.156 1695.14 169.856 1695.05 169.496 1695.05C169.016 1695.05 168.596 1695.21 168.236 1695.53C167.876 1695.85 167.576 1696.25 167.336 1696.73C167.096 1697.21 166.916 1697.72 166.796 1698.26C166.676 1698.8 166.616 1699.28 166.616 1699.7C166.616 1700.16 166.676 1700.56 166.796 1700.9C166.936 1701.24 167.136 1701.5 167.396 1701.68C167.656 1701.86 167.996 1701.95 168.416 1701.95ZM187.021 1706.27C185.521 1706.27 184.181 1706 183.001 1705.46C181.841 1704.9 180.931 1704.11 180.271 1703.09C179.631 1702.05 179.311 1700.84 179.311 1699.46C179.311 1697.72 179.661 1696.2 180.361 1694.9C181.081 1693.58 182.091 1692.55 183.391 1691.81C184.691 1691.07 186.221 1690.7 187.981 1690.7C189.541 1690.7 190.861 1690.98 191.941 1691.54C193.021 1692.1 193.841 1692.88 194.401 1693.88C194.981 1694.88 195.271 1696.05 195.271 1697.39C195.271 1697.79 195.251 1698.2 195.211 1698.62C195.171 1699.02 195.091 1699.42 194.971 1699.82H183.361L183.331 1697.18H190.891L189.331 1697.87C189.431 1697.61 189.481 1697.39 189.481 1697.21C189.501 1697.01 189.511 1696.82 189.511 1696.64C189.511 1696.2 189.441 1695.85 189.301 1695.59C189.161 1695.31 188.961 1695.11 188.701 1694.99C188.461 1694.85 188.181 1694.78 187.861 1694.78C187.261 1694.78 186.761 1694.94 186.361 1695.26C185.961 1695.58 185.651 1696 185.431 1696.52C185.211 1697.02 185.061 1697.57 184.981 1698.17C184.901 1698.75 184.861 1699.3 184.861 1699.82C184.861 1700.36 184.961 1700.81 185.161 1701.17C185.361 1701.53 185.641 1701.8 186.001 1701.98C186.361 1702.14 186.771 1702.22 187.231 1702.22C187.831 1702.22 188.311 1702.07 188.671 1701.77C189.031 1701.47 189.301 1701.11 189.481 1700.69L194.521 1702.43C194.201 1703.25 193.671 1703.95 192.931 1704.53C192.191 1705.09 191.311 1705.52 190.291 1705.82C189.291 1706.12 188.201 1706.27 187.021 1706.27ZM225.838 1686.2L224.788 1690.79H218.488L214.978 1706H208.858L212.368 1690.79H206.038L207.118 1686.2H225.838ZM230.202 1706.3C228.662 1706.3 227.322 1706.01 226.182 1705.43C225.042 1704.83 224.152 1704.02 223.512 1703C222.892 1701.96 222.582 1700.78 222.582 1699.46C222.582 1697.88 222.922 1696.43 223.602 1695.11C224.282 1693.77 225.272 1692.7 226.572 1691.9C227.892 1691.1 229.512 1690.7 231.432 1690.7C232.992 1690.7 234.342 1691 235.482 1691.6C236.622 1692.18 237.502 1692.98 238.122 1694C238.762 1695.02 239.082 1696.19 239.082 1697.51C239.082 1699.09 238.742 1700.55 238.062 1701.89C237.382 1703.23 236.382 1704.3 235.062 1705.1C233.762 1705.9 232.142 1706.3 230.202 1706.3ZM230.292 1702.16C230.732 1702.16 231.122 1701.99 231.462 1701.65C231.822 1701.31 232.122 1700.87 232.362 1700.33C232.622 1699.79 232.812 1699.22 232.932 1698.62C233.072 1698.02 233.142 1697.46 233.142 1696.94C233.142 1696.46 233.072 1696.07 232.932 1695.77C232.792 1695.47 232.582 1695.24 232.302 1695.08C232.042 1694.92 231.722 1694.84 231.342 1694.84C230.902 1694.84 230.502 1695.01 230.142 1695.35C229.802 1695.69 229.502 1696.13 229.242 1696.67C229.002 1697.21 228.812 1697.78 228.672 1698.38C228.532 1698.98 228.462 1699.54 228.462 1700.06C228.462 1700.52 228.532 1700.91 228.672 1701.23C228.832 1701.53 229.042 1701.76 229.302 1701.92C229.582 1702.08 229.912 1702.16 230.292 1702.16ZM245.489 1706.3C244.569 1706.3 243.729 1706.08 242.969 1705.64C242.209 1705.2 241.609 1704.55 241.169 1703.69C240.729 1702.83 240.509 1701.76 240.509 1700.48C240.509 1699.28 240.679 1698.1 241.019 1696.94C241.359 1695.78 241.839 1694.73 242.459 1693.79C243.099 1692.85 243.869 1692.1 244.769 1691.54C245.669 1690.98 246.699 1690.7 247.859 1690.7C248.439 1690.7 249.009 1690.81 249.569 1691.03C250.149 1691.25 250.649 1691.6 251.069 1692.08C251.509 1692.56 251.799 1693.22 251.939 1694.06L254.069 1684.82H260.129L255.239 1706H249.719L250.229 1703.15C249.729 1704.13 249.069 1704.9 248.249 1705.46C247.429 1706.02 246.509 1706.3 245.489 1706.3ZM248.309 1701.95C248.729 1701.95 249.109 1701.8 249.449 1701.5C249.809 1701.2 250.109 1700.81 250.349 1700.33C250.589 1699.83 250.769 1699.3 250.889 1698.74C251.029 1698.18 251.099 1697.65 251.099 1697.15C251.099 1696.71 251.029 1696.34 250.889 1696.04C250.749 1695.72 250.549 1695.48 250.289 1695.32C250.049 1695.14 249.749 1695.05 249.389 1695.05C248.909 1695.05 248.489 1695.21 248.129 1695.53C247.769 1695.85 247.469 1696.25 247.229 1696.73C246.989 1697.21 246.809 1697.72 246.689 1698.26C246.569 1698.8 246.509 1699.28 246.509 1699.7C246.509 1700.16 246.569 1700.56 246.689 1700.9C246.829 1701.24 247.029 1701.5 247.289 1701.68C247.549 1701.86 247.889 1701.95 248.309 1701.95ZM264.034 1706.3C263.114 1706.3 262.274 1706.08 261.514 1705.64C260.754 1705.2 260.154 1704.55 259.714 1703.69C259.274 1702.83 259.054 1701.76 259.054 1700.48C259.054 1699.28 259.224 1698.1 259.564 1696.94C259.904 1695.78 260.384 1694.73 261.004 1693.79C261.644 1692.85 262.414 1692.1 263.314 1691.54C264.214 1690.98 265.244 1690.7 266.404 1690.7C266.984 1690.7 267.554 1690.81 268.114 1691.03C268.694 1691.25 269.194 1691.6 269.614 1692.08C270.054 1692.56 270.344 1693.22 270.484 1694.06L271.204 1691H277.264L273.784 1706H268.264L268.774 1703.15C268.274 1704.13 267.614 1704.9 266.794 1705.46C265.974 1706.02 265.054 1706.3 264.034 1706.3ZM266.854 1701.95C267.274 1701.95 267.654 1701.8 267.994 1701.5C268.334 1701.2 268.624 1700.81 268.864 1700.33C269.124 1699.83 269.314 1699.3 269.434 1698.74C269.574 1698.18 269.644 1697.65 269.644 1697.15C269.644 1696.71 269.574 1696.34 269.434 1696.04C269.294 1695.72 269.094 1695.48 268.834 1695.32C268.594 1695.14 268.294 1695.05 267.934 1695.05C267.454 1695.05 267.034 1695.21 266.674 1695.53C266.314 1695.85 266.014 1696.25 265.774 1696.73C265.534 1697.21 265.354 1697.72 265.234 1698.26C265.114 1698.8 265.054 1699.28 265.054 1699.7C265.054 1700.16 265.114 1700.56 265.234 1700.9C265.374 1701.24 265.574 1701.5 265.834 1701.68C266.094 1701.86 266.434 1701.95 266.854 1701.95ZM278.618 1712.45C277.718 1712.45 276.878 1712.35 276.098 1712.15C275.318 1711.95 274.708 1711.7 274.268 1711.4L275.828 1707.26C276.528 1707.84 277.418 1708.13 278.498 1708.13C279.018 1708.13 279.478 1708.04 279.878 1707.86C280.298 1707.68 280.628 1707.4 280.868 1707.02L281.198 1706.48L278.558 1691H284.708L284.828 1698.89L284.798 1702.52L286.328 1698.92L289.838 1691H296.198L287.168 1706.66C286.368 1708.06 285.548 1709.18 284.708 1710.02C283.888 1710.88 282.988 1711.5 282.008 1711.88C281.028 1712.26 279.898 1712.45 278.618 1712.45ZM303.092 1706L302.582 1691H308.492L308.222 1701.41L313.022 1691H318.992L319.262 1701.44L323.612 1691H330.002L322.412 1706H315.062L314.762 1697.72L310.682 1706H303.092ZM335.018 1689.68C333.998 1689.68 333.208 1689.48 332.648 1689.08C332.108 1688.68 331.898 1688.03 332.018 1687.13C332.158 1686.09 332.518 1685.36 333.098 1684.94C333.678 1684.52 334.518 1684.31 335.618 1684.31C336.658 1684.31 337.448 1684.52 337.988 1684.94C338.548 1685.34 338.768 1685.96 338.648 1686.8C338.508 1687.92 338.138 1688.68 337.538 1689.08C336.938 1689.48 336.098 1689.68 335.018 1689.68ZM337.448 1691L333.968 1706H327.908L331.388 1691H337.448ZM345.063 1706.3C343.743 1706.3 342.613 1706.07 341.673 1705.61C340.753 1705.15 340.103 1704.47 339.723 1703.57C339.363 1702.67 339.333 1701.54 339.633 1700.18L342.513 1687.79L348.963 1686.11L345.753 1699.97C345.553 1700.69 345.633 1701.25 345.993 1701.65C346.373 1702.03 346.943 1702.22 347.703 1702.22C348.163 1702.22 348.523 1702.2 348.783 1702.16C349.043 1702.1 349.283 1702.02 349.503 1701.92L348.903 1705.67C348.343 1705.89 347.733 1706.05 347.073 1706.15C346.433 1706.25 345.763 1706.3 345.063 1706.3ZM338.133 1695.17L339.093 1691H351.723L350.763 1695.17H338.133ZM350.818 1706L355.708 1684.82H361.768L359.518 1694.6L359.008 1695.44C359.248 1694.6 359.618 1693.83 360.118 1693.13C360.618 1692.41 361.258 1691.83 362.038 1691.39C362.838 1690.93 363.778 1690.7 364.858 1690.7C365.798 1690.7 366.608 1690.93 367.288 1691.39C367.968 1691.83 368.438 1692.46 368.698 1693.28C368.978 1694.08 368.998 1695.03 368.758 1696.13L366.448 1706H360.388L362.458 1697.24C362.598 1696.62 362.548 1696.13 362.308 1695.77C362.068 1695.41 361.668 1695.23 361.108 1695.23C360.708 1695.23 360.348 1695.33 360.028 1695.53C359.728 1695.73 359.468 1696.02 359.248 1696.4C359.048 1696.78 358.878 1697.26 358.738 1697.84L356.878 1706H350.818ZM127.201 1746.3C125.501 1746.3 124.071 1745.99 122.911 1745.37C121.771 1744.73 120.911 1743.82 120.331 1742.64C119.751 1741.46 119.461 1740.07 119.461 1738.47C119.461 1737.93 119.491 1737.39 119.551 1736.85C119.611 1736.29 119.691 1735.72 119.791 1735.14C120.051 1733.92 120.401 1732.75 120.841 1731.63C121.301 1730.51 121.891 1729.52 122.611 1728.66C123.331 1727.8 124.221 1727.12 125.281 1726.62C126.341 1726.12 127.611 1725.87 129.091 1725.87C130.791 1725.87 132.211 1726.2 133.351 1726.86C134.491 1727.5 135.351 1728.41 135.931 1729.59C136.511 1730.75 136.801 1732.14 136.801 1733.76C136.801 1734.28 136.771 1734.81 136.711 1735.35C136.651 1735.89 136.571 1736.45 136.471 1737.03C136.211 1738.25 135.851 1739.42 135.391 1740.54C134.951 1741.66 134.371 1742.66 133.651 1743.54C132.931 1744.4 132.041 1745.08 130.981 1745.58C129.921 1746.06 128.661 1746.3 127.201 1746.3ZM127.201 1741.59C127.761 1741.59 128.231 1741.42 128.611 1741.08C129.011 1740.72 129.361 1740.17 129.661 1739.43C129.981 1738.67 130.281 1737.71 130.561 1736.55C130.781 1735.81 130.931 1735.15 131.011 1734.57C131.091 1733.99 131.131 1733.48 131.131 1733.04C131.131 1732.2 130.961 1731.58 130.621 1731.18C130.281 1730.78 129.761 1730.58 129.061 1730.58C128.501 1730.58 128.021 1730.76 127.621 1731.12C127.221 1731.46 126.861 1732 126.541 1732.74C126.241 1733.48 125.941 1734.44 125.641 1735.62C125.441 1736.34 125.291 1737 125.191 1737.6C125.111 1738.18 125.071 1738.69 125.071 1739.13C125.071 1739.69 125.151 1740.16 125.311 1740.54C125.471 1740.9 125.711 1741.17 126.031 1741.35C126.351 1741.51 126.741 1741.59 127.201 1741.59ZM141.585 1746L160.485 1726.17H165.345L146.445 1746H141.585ZM145.245 1737.3C144.165 1737.3 143.205 1737.09 142.365 1736.67C141.545 1736.23 140.905 1735.62 140.445 1734.84C139.985 1734.04 139.755 1733.11 139.755 1732.05C139.755 1730.87 140.025 1729.82 140.565 1728.9C141.105 1727.98 141.845 1727.25 142.785 1726.71C143.725 1726.17 144.785 1725.9 145.965 1725.9C147.045 1725.9 147.995 1726.12 148.815 1726.56C149.635 1726.98 150.275 1727.58 150.735 1728.36C151.215 1729.14 151.455 1730.07 151.455 1731.15C151.455 1732.31 151.185 1733.36 150.645 1734.3C150.105 1735.24 149.365 1735.98 148.425 1736.52C147.485 1737.04 146.425 1737.3 145.245 1737.3ZM145.425 1733.34C145.765 1733.34 146.055 1733.25 146.295 1733.07C146.555 1732.87 146.755 1732.62 146.895 1732.32C147.035 1732 147.105 1731.65 147.105 1731.27C147.105 1730.83 146.975 1730.49 146.715 1730.25C146.475 1729.99 146.165 1729.86 145.785 1729.86C145.425 1729.86 145.115 1729.95 144.855 1730.13C144.615 1730.31 144.425 1730.56 144.285 1730.88C144.145 1731.2 144.075 1731.55 144.075 1731.93C144.075 1732.37 144.205 1732.72 144.465 1732.98C144.725 1733.22 145.045 1733.34 145.425 1733.34ZM160.995 1746.27C159.915 1746.27 158.955 1746.06 158.115 1745.64C157.295 1745.2 156.655 1744.59 156.195 1743.81C155.735 1743.01 155.505 1742.08 155.505 1741.02C155.505 1739.84 155.775 1738.79 156.315 1737.87C156.855 1736.95 157.595 1736.22 158.535 1735.68C159.475 1735.14 160.535 1734.87 161.715 1734.87C162.795 1734.87 163.745 1735.09 164.565 1735.53C165.385 1735.95 166.025 1736.55 166.485 1737.33C166.945 1738.11 167.175 1739.04 167.175 1740.12C167.175 1741.28 166.905 1742.33 166.365 1743.27C165.825 1744.21 165.085 1744.95 164.145 1745.49C163.225 1746.01 162.175 1746.27 160.995 1746.27ZM161.175 1742.31C161.515 1742.31 161.805 1742.22 162.045 1742.04C162.305 1741.86 162.505 1741.61 162.645 1741.29C162.785 1740.97 162.855 1740.62 162.855 1740.24C162.855 1739.8 162.725 1739.46 162.465 1739.22C162.225 1738.96 161.915 1738.83 161.535 1738.83C161.175 1738.83 160.865 1738.92 160.605 1739.1C160.365 1739.28 160.175 1739.53 160.035 1739.85C159.895 1740.17 159.825 1740.52 159.825 1740.9C159.825 1741.34 159.945 1741.69 160.185 1741.95C160.445 1742.19 160.775 1742.31 161.175 1742.31ZM195.783 1730.79H186.243L185.463 1734.24H193.233L192.183 1738.83H184.383L182.733 1746H176.583L181.173 1726.2H196.863L195.783 1730.79ZM201.498 1729.68C200.478 1729.68 199.688 1729.48 199.128 1729.08C198.588 1728.68 198.378 1728.03 198.498 1727.13C198.638 1726.09 198.998 1725.36 199.578 1724.94C200.158 1724.52 200.998 1724.31 202.098 1724.31C203.138 1724.31 203.928 1724.52 204.468 1724.94C205.028 1725.34 205.248 1725.96 205.128 1726.8C204.988 1727.92 204.618 1728.68 204.018 1729.08C203.418 1729.48 202.578 1729.68 201.498 1729.68ZM203.928 1731L200.448 1746H194.387L197.868 1731H203.928ZM203.352 1746L206.832 1731H212.202L211.362 1736.28L211.122 1735.77C211.542 1734.15 212.282 1732.9 213.342 1732.02C214.402 1731.14 215.672 1730.7 217.152 1730.7C218.192 1730.7 219.062 1730.93 219.762 1731.39C220.462 1731.85 220.952 1732.5 221.232 1733.34C221.512 1734.18 221.512 1735.19 221.232 1736.37L218.982 1746H212.922L214.992 1737.24C215.132 1736.62 215.082 1736.13 214.842 1735.77C214.602 1735.41 214.202 1735.23 213.642 1735.23C213.242 1735.23 212.882 1735.33 212.562 1735.53C212.262 1735.73 212.002 1736.02 211.782 1736.4C211.582 1736.78 211.412 1737.26 211.272 1737.84L209.412 1746H203.352ZM227.72 1746.3C226.8 1746.3 225.96 1746.08 225.2 1745.64C224.44 1745.2 223.84 1744.55 223.4 1743.69C222.96 1742.83 222.74 1741.76 222.74 1740.48C222.74 1739.28 222.91 1738.1 223.25 1736.94C223.59 1735.78 224.07 1734.73 224.69 1733.79C225.33 1732.85 226.1 1732.1 227 1731.54C227.9 1730.98 228.93 1730.7 230.09 1730.7C230.67 1730.7 231.24 1730.81 231.8 1731.03C232.38 1731.25 232.88 1731.6 233.3 1732.08C233.74 1732.56 234.03 1733.22 234.17 1734.06L234.89 1731H240.95L237.47 1746H231.95L232.46 1743.15C231.96 1744.13 231.3 1744.9 230.48 1745.46C229.66 1746.02 228.74 1746.3 227.72 1746.3ZM230.54 1741.95C230.96 1741.95 231.34 1741.8 231.68 1741.5C232.02 1741.2 232.31 1740.81 232.55 1740.33C232.81 1739.83 233 1739.3 233.12 1738.74C233.26 1738.18 233.33 1737.65 233.33 1737.15C233.33 1736.71 233.26 1736.34 233.12 1736.04C232.98 1735.72 232.78 1735.48 232.52 1735.32C232.28 1735.14 231.98 1735.05 231.62 1735.05C231.14 1735.05 230.72 1735.21 230.36 1735.53C230 1735.85 229.7 1736.25 229.46 1736.73C229.22 1737.21 229.04 1737.72 228.92 1738.26C228.8 1738.8 228.74 1739.28 228.74 1739.7C228.74 1740.16 228.8 1740.56 228.92 1740.9C229.06 1741.24 229.26 1741.5 229.52 1741.68C229.78 1741.86 230.12 1741.95 230.54 1741.95ZM240.325 1746L243.805 1731H249.175L248.335 1736.28L248.095 1735.77C248.515 1734.15 249.255 1732.9 250.315 1732.02C251.375 1731.14 252.645 1730.7 254.125 1730.7C255.165 1730.7 256.035 1730.93 256.735 1731.39C257.435 1731.85 257.925 1732.5 258.205 1733.34C258.485 1734.18 258.485 1735.19 258.205 1736.37L255.955 1746H249.895L251.965 1737.24C252.105 1736.62 252.055 1736.13 251.815 1735.77C251.575 1735.41 251.175 1735.23 250.615 1735.23C250.215 1735.23 249.855 1735.33 249.535 1735.53C249.235 1735.73 248.975 1736.02 248.755 1736.4C248.555 1736.78 248.385 1737.26 248.245 1737.84L246.385 1746H240.325ZM267.723 1746.3C266.083 1746.3 264.673 1746.01 263.493 1745.43C262.313 1744.85 261.403 1744.05 260.763 1743.03C260.143 1741.99 259.833 1740.8 259.833 1739.46C259.833 1737.88 260.173 1736.43 260.853 1735.11C261.533 1733.77 262.533 1732.7 263.853 1731.9C265.173 1731.1 266.793 1730.7 268.713 1730.7C270.193 1730.7 271.473 1730.94 272.553 1731.42C273.653 1731.9 274.503 1732.57 275.103 1733.43C275.723 1734.29 276.023 1735.31 276.003 1736.49L270.273 1737.33C270.373 1736.59 270.303 1736 270.063 1735.56C269.843 1735.12 269.393 1734.9 268.713 1734.9C268.213 1734.9 267.783 1735.07 267.423 1735.41C267.063 1735.75 266.753 1736.18 266.493 1736.7C266.253 1737.22 266.063 1737.78 265.923 1738.38C265.803 1738.98 265.743 1739.54 265.743 1740.06C265.743 1740.52 265.823 1740.91 265.983 1741.23C266.143 1741.55 266.363 1741.79 266.643 1741.95C266.943 1742.09 267.283 1742.16 267.663 1742.16C268.143 1742.16 268.573 1741.99 268.953 1741.65C269.333 1741.29 269.603 1740.82 269.763 1740.24L275.103 1741.95C274.523 1743.29 273.593 1744.35 272.313 1745.13C271.053 1745.91 269.523 1746.3 267.723 1746.3ZM283.001 1729.68C281.981 1729.68 281.191 1729.48 280.631 1729.08C280.091 1728.68 279.881 1728.03 280.001 1727.13C280.141 1726.09 280.501 1725.36 281.081 1724.94C281.661 1724.52 282.501 1724.31 283.601 1724.31C284.641 1724.31 285.431 1724.52 285.971 1724.94C286.531 1725.34 286.751 1725.96 286.631 1726.8C286.491 1727.92 286.121 1728.68 285.521 1729.08C284.921 1729.48 284.081 1729.68 283.001 1729.68ZM285.431 1731L281.951 1746H275.891L279.371 1731H285.431ZM284.856 1746L288.336 1731H293.706L292.866 1736.28L292.626 1735.77C293.046 1734.15 293.786 1732.9 294.846 1732.02C295.906 1731.14 297.176 1730.7 298.656 1730.7C299.696 1730.7 300.566 1730.93 301.266 1731.39C301.966 1731.85 302.456 1732.5 302.736 1733.34C303.016 1734.18 303.016 1735.19 302.736 1736.37L300.486 1746H294.426L296.496 1737.24C296.636 1736.62 296.586 1736.13 296.346 1735.77C296.106 1735.41 295.706 1735.23 295.146 1735.23C294.746 1735.23 294.386 1735.33 294.066 1735.53C293.766 1735.73 293.506 1736.02 293.286 1736.4C293.086 1736.78 292.916 1737.26 292.776 1737.84L290.916 1746H284.856ZM309.883 1752.45C308.963 1752.45 308.073 1752.34 307.213 1752.12C306.373 1751.9 305.613 1751.55 304.933 1751.07C304.253 1750.61 303.733 1750.02 303.373 1749.3C302.993 1748.58 302.813 1747.73 302.833 1746.75L308.893 1746.3C308.873 1747.04 308.973 1747.63 309.193 1748.07C309.413 1748.51 309.893 1748.73 310.633 1748.73C311.033 1748.73 311.383 1748.62 311.683 1748.4C312.003 1748.2 312.283 1747.88 312.523 1747.44C312.763 1747.02 312.963 1746.44 313.123 1745.7L314.353 1740.39L314.563 1740.54C314.263 1742.18 313.673 1743.44 312.793 1744.32C311.913 1745.18 310.783 1745.61 309.403 1745.61C308.463 1745.61 307.613 1745.39 306.853 1744.95C306.113 1744.51 305.523 1743.87 305.083 1743.03C304.643 1742.17 304.423 1741.12 304.423 1739.88C304.423 1738.72 304.583 1737.59 304.903 1736.49C305.243 1735.39 305.723 1734.41 306.343 1733.55C306.983 1732.67 307.743 1731.98 308.623 1731.48C309.523 1730.96 310.533 1730.7 311.653 1730.7C312.353 1730.7 313.023 1730.86 313.663 1731.18C314.303 1731.5 314.823 1732.02 315.223 1732.74C315.643 1733.44 315.833 1734.36 315.793 1735.5L315.163 1736.43L316.393 1731H322.453L319.213 1745.01C318.793 1746.89 318.173 1748.37 317.353 1749.45C316.533 1750.53 315.503 1751.3 314.263 1751.76C313.043 1752.22 311.583 1752.45 309.883 1752.45ZM312.223 1741.32C312.783 1741.32 313.253 1741.11 313.633 1740.69C314.033 1740.25 314.333 1739.71 314.533 1739.07C314.753 1738.43 314.863 1737.78 314.863 1737.12C314.863 1736.7 314.793 1736.34 314.653 1736.04C314.513 1735.72 314.313 1735.48 314.053 1735.32C313.793 1735.14 313.483 1735.05 313.123 1735.05C312.503 1735.05 311.993 1735.28 311.593 1735.74C311.193 1736.18 310.893 1736.72 310.693 1737.36C310.493 1737.98 310.393 1738.56 310.393 1739.1C310.393 1739.76 310.533 1740.3 310.813 1740.72C311.113 1741.12 311.583 1741.32 312.223 1741.32Z" fill="white"/>
<defs>
<clipPath id="clip0_1_60">
<rect width="91" height="78" fill="white" transform="translate(178 952)"/>
</clipPath>
</defs>
</svg>
