<?xml version="1.0" encoding="utf-8"?>
<svg version="1.2" baseProfile="tiny-ps" xmlns="http://www.w3.org/2000/svg" width="830px" height="838px" viewBox="0 0 830 838" preserveAspectRatio="xMidYMid meet">
 <g fill="#000000">
  <path d="M411.8 834.2 c-2.6 -2.5 -5.8 -9.7 -5.8 -12.9 0 -0.8 -0.7 -2.1 -1.5 -2.9 -0.8 -0.9 -1.8 -3.3 -2.1 -5.5 -0.4 -2.2 -0.9 -3.7 -1.2 -3.4 -0.6 0.6 -5.9 -13.1 -9.7 -25 -1.2 -3.8 -3.3 -9.5 -4.7 -12.5 -1.4 -3 -4.7 -11.3 -7.3 -18.5 -2.6 -7.1 -5.6 -15.2 -6.7 -18 -1.1 -2.7 -3.5 -9 -5.3 -14 -1.8 -4.9 -5.2 -13.7 -7.5 -19.5 -2.4 -5.8 -6.2 -15.9 -8.5 -22.5 -2.3 -6.6 -5.2 -14 -6.3 -16.5 -1.1 -2.5 -2.4 -6.2 -2.7 -8.2 -0.4 -2.1 -1.1 -3.8 -1.6 -3.8 -0.4 0 -1.1 -1.6 -1.5 -3.7 -0.7 -3.5 -3 -7.3 -4.6 -7.3 -1 0 -5.6 3.2 -15.3 10.6 -4.4 3.3 -15.2 11.1 -24 17.3 -16.7 11.7 -18.1 12.7 -23 16.5 -8.4 6.6 -26.5 19.1 -30.2 20.9 -2.4 1.2 -4.3 2.6 -4.3 3.1 0 0.9 -6.9 6 -25.9 18.8 -1.8 1.3 -5 3.7 -7 5.4 -2 1.7 -5 3.8 -6.7 4.7 -1.7 0.9 -4.5 2.9 -6.3 4.6 -1.7 1.6 -4.7 3.5 -6.6 4.1 -1.9 0.6 -3.5 1.7 -3.5 2.4 0 0.6 -2.5 2.7 -5.5 4.6 -3.1 1.9 -7.2 4.9 -9.2 6.7 -2 1.7 -6.1 4.4 -9.1 5.9 -4.3 2.2 -5.9 2.5 -8 1.8 -4.6 -1.6 -4.1 -6.2 3 -29.3 5.2 -17.1 36.5 -111.5 42.1 -127.1 3 -8.3 15.7 -48.7 15.7 -49.9 0 -0.8 -26.8 -1.1 -101.9 -1.1 l-101.9 0 -2.6 -3.1 c-1.4 -1.7 -2.6 -3.9 -2.6 -5 0 -2.4 4.4 -6.7 16.5 -16 5 -3.9 10.7 -8.6 12.9 -10.4 2.1 -1.9 4.2 -3.5 4.6 -3.5 0.5 0 2.2 -1.2 3.8 -2.7 4.4 -4.3 19.9 -16.6 23 -18.4 1.5 -0.8 4.4 -3.2 6.5 -5.2 2.1 -2 4.9 -4 6.3 -4.3 1.3 -0.3 2.4 -1.1 2.4 -1.8 0 -1.2 8.7 -8.5 16.2 -13.5 2.6 -1.8 5 -3.7 5.4 -4.2 0.3 -0.6 4 -3.7 8.3 -7 4.2 -3.2 8.3 -6.5 9.1 -7.3 6.9 -6.3 28.7 -22.6 30.2 -22.6 1 0 2.2 -0.8 2.6 -1.9 0.4 -1 3.7 -4.4 7.4 -7.5 3.8 -3.2 6.8 -6.3 6.8 -7 0 -1.6 -5.8 -6.7 -13.5 -11.9 -6.6 -4.5 -47.9 -35.8 -59 -44.7 -3.8 -3.1 -9 -7.1 -11.5 -8.8 -13.3 -9.5 -27.7 -20.5 -32.8 -25.1 -1.2 -1.2 -2.7 -2.1 -3.2 -2.1 -0.6 0 -1 -0.4 -1 -0.8 0 -0.5 -3 -2.8 -6.7 -5.3 -3.7 -2.4 -8.7 -6.2 -11 -8.5 -2.4 -2.3 -5.5 -4.6 -6.8 -5.2 -1.4 -0.7 -2.8 -1.9 -3.1 -2.7 -0.4 -0.8 -1.1 -1.5 -1.7 -1.5 -0.6 0 -1.7 -0.7 -2.6 -1.4 -0.9 -0.8 -3.3 -3 -5.4 -4.8 -4.9 -4.3 -6.4 -9.1 -3.6 -11.9 1 -1 1.9 -2.3 1.9 -2.8 0 -2.4 11.7 -2.8 137 -3.9 l72.5 -0.7 0.3 -3 c0.2 -1.9 -0.4 -3.9 -1.6 -5.3 -1 -1.2 -2.9 -5.7 -4.2 -9.9 -1.2 -4.3 -5.3 -17 -9.1 -28.3 -20.4 -61.7 -40.9 -126.3 -40.9 -129 0 -1.7 -0.4 -2.9 -0.9 -2.6 -1.1 0.7 -3.1 -6.3 -3.1 -11.3 0 -4.9 3.4 -9.1 7.4 -9.1 3.4 0 14.2 5.8 18.2 9.7 1.8 1.8 4.9 3.9 6.8 4.7 2 0.8 3.6 2.2 3.6 3.1 0 0.9 0.4 1.4 0.9 1.1 1.1 -0.7 6.7 2.6 11.9 7 2.1 1.7 6.2 4.5 9.2 6.3 7.6 4.6 25.3 17.3 26.3 18.8 0.5 0.8 1.2 1.1 1.8 0.8 0.5 -0.4 0.9 -0.3 0.9 0.2 0 0.4 1.4 1.4 3.1 2.2 1.7 0.8 4.6 2.6 6.3 4.1 1.7 1.5 4.5 3.5 6.3 4.5 1.7 1 3.7 2.8 4.3 4.1 0.7 1.2 2.4 2.4 3.9 2.7 1.4 0.3 4.2 1.7 6.1 3.1 1.9 1.4 4.8 3.4 6.4 4.3 1.6 1 4.5 3.2 6.5 4.9 2 1.7 5.2 3.9 7.1 4.9 4.3 2.2 15.3 10 17 12 0.7 0.8 3.1 2.4 5.4 3.5 2.2 1.1 8.3 4.9 13.5 8.5 5.2 3.6 9.9 6.4 10.4 6.2 0.5 -0.1 2.1 -3.2 3.4 -6.7 1.4 -3.6 3.8 -9.6 5.4 -13.5 1.5 -3.8 4.9 -12.8 7.5 -20 2.5 -7.1 6.1 -16.3 8 -20.4 1.9 -4.1 3.4 -7.8 3.4 -8.4 0 -1.1 7.9 -22.3 11.2 -30 1.1 -2.6 2.4 -4.7 2.9 -4.7 0.5 0 0.7 -1.1 0.3 -2.4 -0.3 -1.4 0 -2.9 1 -3.9 0.9 -0.8 1.6 -2.4 1.6 -3.4 0 -1 1 -4.6 2.2 -8 1.6 -4.5 2.8 -6.3 4 -6.3 1 0 1.8 -0.4 1.8 -1 0 -0.5 -0.4 -1 -1 -1 -0.5 0 -1 -0.7 -1 -1.5 0 -0.8 0.5 -1.5 1 -1.5 0.6 0 1 -1 1 -2.2 0 -1.2 0.9 -4 1.9 -6.2 1.1 -2.3 3.4 -8.6 5.2 -14 1.8 -5.5 4.1 -10.8 5.1 -11.8 0.9 -0.9 1.5 -2.4 1.2 -3.3 -0.4 -0.8 0 -2.5 0.8 -3.8 0.8 -1.2 1.8 -3.7 2.1 -5.5 1.3 -6.3 4.4 -12.2 6.6 -12.2 1.1 0 3.1 -0.5 4.4 -1.1 4.8 -2.2 10.1 4 12.2 14.1 0.4 1.9 1.3 4.2 2 5 1.8 2 7.3 17.2 6.8 18.7 -0.3 0.7 0.5 2.5 1.6 4 2.2 3 12.4 29.5 13.6 35.3 0.4 1.9 1.2 3.8 1.7 4.1 1.7 1.1 7.5 18.8 7.1 21.4 -0.3 1.5 -0.1 2.5 0.6 2.5 1.1 0 7.1 11.4 7.1 13.6 0 0.5 0.9 2.9 2 5.2 1.1 2.3 3 7.9 4.2 12.4 1.2 4.6 3 9.4 4 10.8 1.2 1.5 1.7 3.3 1.3 4.7 -0.3 1.3 -0.1 2.3 0.4 2.3 1.3 0 4.5 7.3 8.8 20 1.9 5.8 3.9 11 4.3 11.5 0.4 0.6 1.5 3.1 2.5 5.7 1 2.7 2.3 4.8 2.9 4.8 0.6 0 3.4 -1.8 6.1 -4.1 2.7 -2.2 6.1 -4.7 7.7 -5.5 1.5 -0.8 4 -2.6 5.5 -4 1.5 -1.4 4.5 -3.5 6.5 -4.5 2 -1 4 -2.4 4.3 -3 0.4 -0.6 3 -2.6 5.9 -4.5 6.1 -4.1 12.5 -8.8 14.6 -10.7 0.8 -0.8 2.5 -1.9 3.7 -2.6 1.2 -0.6 3.4 -2.2 4.8 -3.6 1.5 -1.3 3.2 -2.2 3.9 -1.9 0.8 0.3 1.6 -0.4 1.9 -1.5 0.3 -1.1 2.2 -2.8 4.3 -3.8 2.1 -1 5.1 -3.2 6.5 -4.8 1.5 -1.7 4 -3.7 5.6 -4.5 1.5 -0.8 4.4 -2.8 6.4 -4.5 2 -1.6 6 -4.6 8.8 -6.5 2.8 -1.9 7 -5 9.3 -6.8 2.3 -1.8 5.5 -4 7.1 -4.9 1.7 -0.8 4.6 -3.1 6.6 -5 1.9 -1.9 4.9 -3.7 6.5 -4 1.7 -0.4 3.1 -1.4 3.4 -2.5 0.2 -1 2.1 -2.7 4.1 -3.8 2.1 -1 5.2 -3.3 7.1 -5 1.9 -1.7 5.1 -4 7.2 -5.1 2.1 -1.1 3.8 -2.3 3.8 -2.8 0 -1.1 7.9 -6.6 8.5 -5.9 0.3 0.2 2.5 -1.5 5 -3.8 5 -4.9 11.3 -8.4 14.7 -8.4 4.4 0 5.2 1.4 5.2 8.7 0 6.5 -1.6 13 -5.4 21.8 -0.9 2.2 -6.1 17.5 -11.5 34 -5.3 16.5 -10.7 32.7 -11.9 36 -3.4 8.9 -9.5 27.2 -11.2 33.5 -0.9 3 -3.1 9.6 -4.9 14.5 -4.4 11.9 -17.5 53.7 -17.5 55.8 0 1.6 2.4 1.7 28.5 1.7 15.7 0 28.5 0.3 28.5 0.8 0 0.4 32.1 0.7 71.4 0.7 71 0 71.5 0 74.3 2.1 2.3 1.7 2.9 3 3.1 7.1 0.3 4.9 0.2 5 -5 9.5 -2.9 2.5 -9.3 7.5 -14.3 11.1 -4.9 3.6 -10.4 8 -12.2 9.7 -1.8 1.6 -3.7 3 -4.2 3 -0.5 0 -3.6 2.3 -6.8 5.1 -3.2 2.8 -8.9 7.2 -12.6 9.7 -3.7 2.5 -8.4 6 -10.3 7.8 -5.2 5 -22.6 17.9 -26.2 19.5 -1.7 0.7 -3.3 2 -3.5 2.9 -0.4 1.7 -16.8 13.7 -21 15.4 -1.5 0.6 -2.6 1.5 -2.4 2.1 0.5 1.3 -4.2 4.5 -6.6 4.5 -1 0 -1.7 0.5 -1.5 1.2 0.5 1.4 -2.4 4 -10.4 9.5 -7.9 5.5 -24.2 18.3 -24.6 19.4 -0.2 0.5 0.9 2 2.5 3.2 1.5 1.2 3.7 3.1 4.8 4.3 1.1 1.1 3.7 3.1 5.8 4.3 2.1 1.3 4.5 3.4 5.4 4.7 0.8 1.3 2 2.4 2.6 2.4 1 0 8.2 5.6 13.2 10.3 1.1 1 5.4 4.3 9.5 7.4 4.1 3 9.3 7.2 11.5 9.2 2.2 2.1 5.7 4.8 7.7 6.2 2.1 1.3 3.8 3.1 3.8 4 0 1 1.3 2 3.2 2.5 1.8 0.5 3.7 1.9 4.3 3 0.6 1.1 1.6 1.9 2.3 1.6 0.8 -0.2 1 0.2 0.5 1.4 -0.5 1.3 -0.3 1.6 1 1.1 1.6 -0.6 13.6 8.1 18 13 1 1.2 3.8 3.3 6.3 4.9 2.4 1.5 4.4 3.4 4.4 4.1 0 0.8 0.8 1.6 1.8 2 2.5 0.9 13.4 8.7 15.7 11.3 1.1 1.2 4.3 3.7 7.2 5.6 2.8 1.8 5.7 4.2 6.3 5.3 0.6 1.2 1.5 2.1 2.1 2.1 2.1 0 6.9 4.2 6.9 6 0 1.2 1 2.1 2.9 2.5 3.3 0.7 10.8 7.2 11.1 9.5 0.6 4.4 0 6 -2.5 6 -1.3 0 -2.8 0.8 -3.4 1.8 -0.9 1.6 -6.9 1.7 -95.3 2.4 -51.9 0.4 -96.7 1 -99.6 1.3 -3.5 0.4 -5.1 1.1 -4.8 1.8 2.6 6.3 7.7 23.8 8 27.3 0.2 2.5 1 5 1.9 5.7 1.6 1.3 8.1 21.1 6.6 20.1 -0.5 -0.3 -0.9 0.4 -0.9 1.5 0 1.2 0.7 2.1 1.5 2.1 0.9 0 1.5 0.9 1.5 2.3 0 1.2 0.6 3.4 1.4 4.9 2.3 4.3 3.9 10 3.8 13.2 0 1.7 0.5 3.8 1.3 4.6 1.6 1.8 6.5 18.1 6.5 21.6 0 1.3 0.4 2.4 0.9 2.4 1.7 0 8.7 24.3 7.5 26.2 -0.8 1.3 0.6 4.8 2 4.8 0.8 0 2.2 3.2 3.5 7.8 1.2 4.2 2.9 9.3 3.7 11.2 2 5 6.4 22.7 6.4 26.1 0 1.6 0.5 2.9 1 2.9 0.6 0 1 1.8 1 4 0 2.2 -0.4 4 -1 4 -0.5 0 -1 0.7 -1 1.5 0 2.2 -3.8 3.8 -7.5 3.1 -2.6 -0.5 -16.8 -9.2 -18.5 -11.5 -0.3 -0.3 -4.5 -3.3 -9.5 -6.5 -4.9 -3.3 -11.5 -7.8 -14.5 -10.1 -3 -2.3 -13.8 -9.8 -24 -16.6 -24.1 -16.2 -30 -20.6 -30 -22.4 0 -0.8 -0.9 -1.5 -1.9 -1.5 -2.2 0 -19.4 -11.2 -21.3 -13.8 -0.7 -1 -2.8 -2.4 -4.6 -3.1 -1.8 -0.8 -3.8 -2.1 -4.5 -3.1 -0.7 -0.9 -2.2 -2 -3.4 -2.4 -1.2 -0.4 -3.6 -2.1 -5.4 -3.7 -1.8 -1.7 -4.5 -3.7 -6.1 -4.5 -1.6 -0.8 -4.6 -3 -6.6 -4.7 -2 -1.8 -5.3 -4.1 -7.2 -5.1 -1.9 -1.1 -6.1 -3.9 -9.4 -6.3 -3.2 -2.5 -6.4 -4.2 -7.1 -3.9 -0.7 0.2 -2 2.7 -3 5.5 -0.9 2.8 -2.1 5.3 -2.6 5.6 -0.5 0.4 -0.9 1.7 -0.9 3.1 0 1.5 -0.6 2.4 -1.6 2.4 -1 0 -1.3 0.6 -0.9 1.9 0.6 2 -7.2 24.1 -8.5 24.1 -0.4 0 -1 1.7 -1.3 3.7 -0.4 2.1 -2.2 7.8 -4.2 12.8 -1.9 4.9 -5.8 15.3 -8.6 23 -2.8 7.7 -6.4 16.7 -7.9 20 -1.5 3.3 -3.8 9.5 -4.9 13.8 -1.2 4.3 -3 9.5 -4 11.5 -1 2 -2.1 5 -2.5 6.6 -1.1 4.7 -16.6 45.6 -20.1 53.4 -2.5 5.2 -4.1 7.5 -6 8.2 -3.8 1.4 -4.7 1.2 -7.7 -1.8z m30 -122.2 c25.7 -68.5 35 -92.7 37.8 -98.6 2 -4.3 5.9 -6.4 11.7 -6.4 5.6 0 2.3 -2.2 82.8 54.7 36.5 25.8 67 47.3 67.8 47.8 1.1 0.6 1.3 0.4 0.7 -1.1 -1 -2.6 -42.8 -135.7 -46 -146.4 -4.7 -15.9 -4.6 -21.4 0.2 -24.7 2.6 -1.7 7.2 -1.8 89.4 -2.3 l86.7 -0.5 -64.3 -51.3 c-35.3 -28.1 -66.8 -53.5 -69.9 -56.3 -5.6 -5 -5.7 -5.2 -5.7 -10.4 0 -3.6 0.6 -5.9 1.8 -7.3 2.9 -3.3 16.1 -13.6 57.7 -45.2 22 -16.7 49.4 -37.6 61 -46.4 l21 -16.1 -89.2 -0.5 c-100.8 -0.6 -92.2 0.3 -93.1 -8.9 -0.5 -6 -1 -4.5 30.4 -99.5 12.3 -37.4 22.3 -68 22.1 -68.2 -0.1 -0.1 -18.2 13.1 -40.2 29.3 -62.7 46.2 -97.7 71.6 -101.5 73.5 -4.2 2.2 -12.7 2.4 -15.7 0.3 -2.9 -2 -4 -4.6 -24.7 -57.7 -25.9 -66.5 -44.7 -114 -45.1 -113.6 -0.2 0.2 -11.9 31.1 -26 68.8 -27.8 73.9 -34.2 90.5 -38 98.1 l-2.5 4.9 -5.6 0 c-3.1 0 -6.9 -0.7 -8.7 -1.6 -1.8 -0.9 -34.4 -23.3 -72.6 -49.8 -38.2 -26.5 -70 -48.4 -70.6 -48.8 -0.6 -0.4 6.4 22.8 15.7 51.5 9.3 28.7 20.5 63.5 24.9 77.2 6.4 19.8 8.2 26.7 8.6 33 0.6 9.1 0.1 9.9 -6.4 11.7 -2.4 0.7 -36.7 1.3 -90.6 1.7 l-86.9 0.6 15.9 11.9 c90.2 68 114.1 86.4 120.5 93.2 3.4 3.4 3.8 4.4 3.8 8.8 0 4.5 -0.4 5.3 -4.3 9 -5.6 5.4 -31.9 26.8 -88.6 72.1 l-46.2 37 86.8 0.5 c88.9 0.5 91.2 0.6 93.5 4.3 0.4 0.7 0.8 3.8 0.8 6.9 0 4.9 -4 17.9 -26.6 85.4 -14.6 43.8 -26.3 79.8 -26 80.1 0.3 0.3 4.2 -2.2 8.8 -5.4 4.6 -3.3 33.3 -24 63.8 -45.9 66.8 -48 74.4 -53.2 78.7 -54 5.7 -1.1 9.9 0.3 12.1 3.9 2.6 4.4 11.2 26.7 40.3 103.4 13.3 35.4 24.4 64.2 24.5 64 0.1 -0.1 11.5 -30.1 25.2 -66.7z m223.5 -434.7 c-1.8 -0.2 -4.8 -0.2 -6.5 0 -1.8 0.2 -0.4 0.4 3.2 0.4 3.6 0 5 -0.2 3.3 -0.4z"/>
 </g>
 <g fill="#c70d13">
  <path d="M415.2 787 c-18.8 -49.8 -56.5 -149.1 -59.4 -156.5 -7.5 -19 -9.6 -21.7 -15.3 -19.5 -3.9 1.5 -13.4 8.1 -70.8 49.4 -80.5 57.8 -87.7 62.9 -88.4 62.2 -0.4 -0.3 12.3 -39.4 28.1 -86.9 15.7 -47.4 28.6 -87.3 28.6 -88.7 0 -1.4 -0.4 -3 -0.8 -3.7 -2.3 -3.6 -4.6 -3.7 -95.9 -4.3 -49 -0.3 -89.4 -0.8 -89.7 -1.1 -0.4 -0.4 26 -22 58.6 -48.1 82.9 -66.4 85.8 -68.8 85.8 -73 0 -3.7 -12.2 -13.7 -76 -61.8 -25 -18.9 -51.1 -38.7 -58 -43.9 l-12.5 -9.6 4 -0.7 c2.2 -0.4 37.3 -0.7 78 -0.8 40.7 -0.1 80.6 -0.5 88.7 -0.9 20.6 -1.2 21.7 -2.1 18.3 -15.6 -1.4 -5.5 -8.1 -26.3 -41.6 -129.7 -6 -18.6 -10.9 -34.5 -10.9 -35.3 0 -1 2.4 0.3 7.3 3.8 12.8 9.5 143.1 99.4 146.4 101.1 1.8 0.9 4.3 1.6 5.7 1.6 4.3 0 4.5 -0.3 43.2 -103.3 15 -40 27.7 -73.5 28.2 -74.4 0.5 -0.8 1.2 -1.2 1.4 -0.7 0.8 1.2 35 88.2 51.9 131.6 16.1 41.4 17.4 44.4 20.5 46.5 5.6 3.6 2.8 5.5 105.3 -69.9 30.5 -22.4 55.6 -40.6 55.9 -40.4 0.2 0.3 -10.4 33.2 -23.6 73.3 -31.6 95.5 -33.4 101.2 -32.7 104.5 1.3 5.5 -3.5 5.3 96.8 5.8 l92.9 0.5 -14.3 11.1 c-7.9 6.1 -37.1 28.3 -64.9 49.4 -51.8 39.3 -65.2 49.8 -68.2 53.2 -2.9 3.3 -2.2 6.2 2.7 10.7 3.5 3.2 107.7 86.7 138.4 110.9 l5.4 4.2 -90.3 0 c-88.7 0 -90.3 0 -93.5 2 -5.4 3.4 -5.3 4.9 2.1 29 3.6 11.4 39.9 127.1 44.8 142.5 1.4 4.3 2.4 8 2.2 8.2 -0.1 0.1 -33.7 -23.4 -74.7 -52.3 -40.9 -28.9 -76.3 -53.7 -78.7 -55.1 -4.9 -2.9 -8.2 -2.6 -11.5 1.1 -2.6 2.9 -8.1 17 -39.9 101.6 -14.3 38.2 -26.6 70.6 -27.3 72 l-1.3 2.5 -1 -2.5z"/>
 </g>
</svg>