<?xml version="1.0" encoding="utf-8"?>
<svg version="1.2" baseProfile="tiny-ps" xmlns="http://www.w3.org/2000/svg" width="597px" height="592px" viewBox="0 0 597 592" preserveAspectRatio="xMidYMid meet">
 <g fill="#ffffff">
  <path d="M438.5 590.9 c-22.4 -2.3 -47.2 -10.9 -64 -22.2 -23.3 -15.7 -42.1 -36.9 -54 -60.8 -9.8 -19.9 -13.6 -37 -13.6 -61.1 0.1 -36.9 11 -67.5 34.1 -95.1 15 -17.9 31.1 -30.2 50.4 -38.3 33.8 -14.3 74.8 -16 108.7 -4.5 26.5 8.9 53.7 29.7 71.3 54.4 6.1 8.5 15 26.3 18.1 35.9 5.1 16.1 6.7 26.9 6.7 46.3 -0.1 11.8 -0.6 20.9 -1.6 26.6 -6.9 38.2 -30.2 72.6 -65 96.1 -21.8 14.6 -40.8 21 -67.6 22.8 -8 0.5 -14.7 0.9 -15 0.8 -0.3 0 -4.1 -0.4 -8.5 -0.9z m98.3 -122.9 c5.1 -3.1 7.2 -7.5 7.2 -15 0 -8.6 -2.1 -12.8 -8 -15.7 -4.3 -2.2 -5.3 -2.3 -34.7 -2.3 l-30.3 0 0 -32.3 c0 -36.9 0 -36.7 -8.4 -42.4 -7.1 -4.9 -15.6 -4.2 -21.9 1.6 -6.3 5.8 -6.2 4.6 -6.5 51.2 l-0.3 42.7 2.5 5 c1.4 2.7 4 5.9 5.8 7.1 3.2 2 4.2 2.1 47.3 2.1 42.2 0 44.1 -0.1 47.3 -2z"/>
  <path d="M237.5 550.9 c-33 -0.3 -96.4 -0.7 -140.9 -0.8 l-80.9 -0.1 -4.7 -3 c-2.6 -1.7 -5.7 -4.8 -7.1 -7.2 l-2.4 -4.3 -0.6 -64 c-0.4 -35.2 -0.7 -114.3 -0.8 -175.7 l-0.1 -111.8 289.5 0 289.5 0 0 31.3 c0 17.3 -0.3 46.3 -0.7 64.5 l-0.6 33 -8.1 -6.8 c-26.2 -21.9 -58.2 -36.2 -93.4 -41.5 l-4.3 -0.7 3.3 -1.6 c5 -2.6 8.1 -9.2 7.3 -16.1 -0.3 -3 -1.5 -7 -2.6 -8.8 -3.8 -6.2 -4.6 -6.3 -37.9 -6.3 -33.6 0 -35.1 0.3 -39 6.5 -2.7 4.3 -2.8 14.6 -0.2 19.4 2.1 3.9 7.3 7.1 11.4 7.1 5.7 0 3.4 1.7 -4.5 3.4 -22.1 4.8 -56 21.1 -73.5 35.4 -3.8 3.1 -4.5 3.4 -6.8 2.3 -1.7 -0.7 -12.1 -1.1 -32.5 -1.1 -33.1 0 -33.7 0.1 -38.1 6.2 -3.3 4.7 -3.3 14.7 0 20.1 4.1 6.5 6.4 7.1 26.9 7.7 l18.2 0.5 -5.5 8.5 c-3.1 4.7 -7.9 13.3 -10.7 19.2 l-5.1 10.6 -8.2 0.4 c-8.9 0.3 -11.7 1.6 -15.8 7.2 -3 4 -3 15.3 0 19.3 2.8 3.8 8.2 7.3 11.1 7.3 2.4 0 2.5 0.2 1.9 4.8 -1.4 11.5 -1.8 44.3 -0.6 54.3 2.9 25.3 14 55.2 28.2 76.2 l3.9 5.7 -2.8 -0.2 c-1.5 -0.1 -29.8 -0.5 -62.8 -0.9z m-53.8 -69.5 c5.2 -3.9 7.3 -8.1 7.3 -14.9 0 -7.3 -2.5 -12 -8 -14.7 -3.1 -1.6 -6.9 -1.8 -31.8 -1.8 -31.1 0 -32.7 0.3 -37.5 5.9 -2.4 2.9 -2.7 4.1 -2.7 10.3 0 8.6 2.1 12.6 8.3 15.7 4 2.1 5.3 2.1 32.9 1.9 27.3 -0.3 28.8 -0.4 31.5 -2.4z m0.9 -73.1 c4.7 -3.4 6.7 -8.4 6.2 -15.7 -0.3 -4.4 -1 -7.1 -2.7 -9.5 -4.2 -5.8 -5.9 -6.1 -37.8 -6.1 l-28.8 0 -3.8 2.5 c-5 3.5 -6.7 7.1 -6.7 14.8 0 7.5 2.3 11.8 8 14.9 3.2 1.7 5.7 1.8 33 1.6 28.7 -0.3 29.6 -0.4 32.6 -2.5z m-2.8 -71.7 c1.5 -0.8 4 -2.8 5.7 -4.5 2.5 -2.8 3 -4.1 3.3 -10 0.5 -8.2 -1.4 -13.1 -6.3 -16.1 -3.1 -1.9 -4.9 -2 -33.8 -2 l-30.5 0 -3.2 2.6 c-4.5 3.8 -6 7.5 -6 14.4 0 9 2.5 13 9.7 15.6 5.6 2 57.3 2 61.1 0z m2.1 -74.4 c5.3 -2.9 7.3 -7.3 6.9 -15.9 -0.3 -6 -0.7 -7.6 -2.8 -9.8 -5.1 -5.4 -5.6 -5.5 -37.6 -5.5 -28.4 0 -29.8 0.1 -33.1 2.1 -4.7 2.9 -6.3 6.6 -6.3 14.4 0 7.7 1.6 11.4 6.2 14.4 3.2 2 4.5 2.1 33.3 2.1 27.2 0 30.4 -0.2 33.4 -1.8z m148.6 -1.2 c4.1 -3.8 5.5 -7.3 5.5 -13.7 0 -6.8 -2.3 -11.3 -7.2 -14.3 -3.1 -1.9 -5.1 -2 -33.3 -2 -27.1 0 -30.4 0.2 -33.5 1.8 -4.3 2.3 -8 9 -8 14.7 0 5.6 3.7 12.4 8 14.7 3.2 1.7 6 1.8 34.7 1.6 l31.1 -0.3 2.7 -2.5z"/>
  <path d="M0.3 101.9 c0.8 -49.2 0.9 -50.3 6 -55.7 5.2 -5.6 4.3 -5.5 56.3 -6 l48.1 -0.5 0.7 -13.1 c0.6 -11.8 1 -13.5 3.4 -17.5 3.5 -5.7 8.1 -8.1 15.5 -8.1 6.2 0 9.9 1.4 13.4 5.2 3.8 4 5.1 8.9 5.8 21.6 l0.8 12.2 36.3 0 36.4 0 0 -12 c0 -12.9 1.1 -17.3 5.3 -21.8 3.5 -3.8 7.2 -5.2 13.3 -5.2 7 0 12.1 2.6 15.7 8.3 2.4 3.6 2.7 5.1 2.7 12.8 0 4.7 0.3 10.7 0.6 13.3 l0.7 4.6 36.2 0 36.3 0 0.7 -12.8 c0.8 -14 2.2 -18 7.5 -22.5 8.4 -7.1 22.4 -4.5 27.8 5.1 1.8 3.2 2.2 5.6 2.2 12.4 0 4.7 0.3 10.6 0.6 13.2 l0.7 4.6 36.2 0 36.3 0 0.7 -12.8 c0.8 -13.4 2 -17.6 6.7 -21.9 3.5 -3.3 9.2 -5.4 13 -4.7 6.9 1.1 7.9 1.5 11.3 4.6 5.5 4.8 6.3 7.2 7.1 21.5 l0.7 13 39.3 0.5 39.3 0.5 4.6 2.8 c3.7 2.1 5.2 3.9 7.2 8.1 l2.5 5.5 0.5 45.4 0.6 45.5 -289.8 0 -289.8 0 0.6 -46.1z m138.4 8.6 c5 -2.1 7.2 -4.2 9.4 -9 1.6 -3.5 1.9 -6.8 1.9 -27.2 l0 -23.3 -19.5 0 -19.5 0 0 22.9 c0 13.8 0.4 24.1 1.1 25.8 1.4 3.7 6.6 9.2 10.4 10.9 4.1 1.8 11.8 1.7 16.2 -0.1z m111 0.4 c1.5 -0.5 4.1 -2.2 5.6 -3.7 5.8 -5.5 6.1 -6.7 6.5 -32.4 l0.4 -23.8 -20.2 0 -20.2 0 0.4 23.4 0.3 23.3 3 4.9 c4.9 8 15.5 11.6 24.2 8.3z m112 0 c3.5 -1.3 8 -5.4 10.1 -9.4 1.4 -2.5 1.7 -7.1 2 -26.7 l0.4 -23.8 -20.2 0 -20.2 0 0.4 23.3 c0.3 21.3 0.5 23.5 2.5 27.2 2.5 4.8 4.7 6.9 9.3 8.9 4.1 1.8 11.7 2 15.7 0.5z m113.3 -0.9 c2.1 -1.1 5.1 -3.6 6.6 -5.6 2.4 -3 2.8 -4.9 3.5 -13.2 0.5 -5.3 0.8 -16.6 0.9 -24.9 l0 -15.3 -20 0 -20 0 0 18.8 c0 23 1 30.2 4.5 34.8 5.5 7.2 16.3 9.6 24.5 5.4z"/>
 </g>
</svg>